<?xml version="1.0" encoding="UTF-8"?>
<svg id="Calque_2" data-name="Calque 2" xmlns="http://www.w3.org/2000/svg" viewBox="0 0 807.283304213493466 807.283304213493466">
  <g id="Calque_1-2" data-name="Calque 1">
    <g>
      <circle cx="403.641652106747188" cy="403.641652106749007" r="403.641652106745823" style="fill: #ea5b0c;"/>
      <g>
        <path d="M222.150186237471644,267.613976788134096v20.39990234375h-61.53955078125v30.08984375h56.94970703125v20.0595703125h-56.94970703125v30.08984375h62.5595703125v20.73974609375h-84.4892578125v-121.37890625h83.46923828125Z" style="fill: #fff;"/>
        <path d="M236.262490924971644,345.813195538134096c0-25.32958984375,16.830078125-44.369140625,38.07958984375-44.369140625,10.8798828125,0,18.7001953125,4.24951171875,24.31005859375,9.689453125v-46.91943359375h19.5498046875v124.77880859375h-19.5498046875v-9.1796875h-.85009765625c-3.91015625,4.9296875-11.89990234375,10.8798828125-23.4599609375,10.8798828125-21.9296875,0-38.07958984375-20.06005859375-38.07958984375-44.8798828125ZM298.991983112471644,346.153527569384096c0-15.47021484375-7.98974609375-26.009765625-21.24951171875-26.009765625-13.08984375,0-20.73974609375,11.3896484375-20.73974609375,25.83935546875,0,15.64013671875,8.66943359375,26.009765625,20.73974609375,26.009765625,13.4296875,0,21.24951171875-11.0498046875,21.24951171875-25.83935546875Z" style="fill: #fff;"/>
        <path d="M337.750283893721644,278.664269756884096c0-7.14013671875,5.60986328125-12.75,12.75-12.75,7.1396484375,0,12.74951171875,5.60986328125,12.74951171875,12.75,0,7.1396484375-5.60986328125,12.74951171875-12.74951171875,12.74951171875-7.14013671875,0-12.75-5.60986328125-12.75-12.74951171875ZM360.360147174971644,303.993859600634096v84.9990234375h-19.5498046875v-84.9990234375h19.5498046875Z" style="fill: #fff;"/>
        <path d="M392.489541706221644,366.043176006884096v-44.70947265625h-15.47021484375v-17.33984375h15.47021484375v-22.27001953125h19.54931640625v22.27001953125h25.16015625v17.33984375h-25.16015625v38.24951171875c0,7.81982421875,3.400390625,12.919921875,11.56005859375,12.919921875,4.759765625,0,7.98974609375-.85009765625,11.2197265625-1.8701171875v17c-2.7197265625,1.18994140625-7.4794921875,3.22998046875-17.33984375,3.22998046875-14.27978515625,0-24.9892578125-10.8798828125-24.9892578125-24.81982421875Z" style="fill: #fff;"/>
        <path d="M450.459268268721644,278.664269756884096c0-7.14013671875,5.60986328125-12.75,12.75-12.75,7.1396484375,0,12.74951171875,5.60986328125,12.74951171875,12.75,0,7.1396484375-5.60986328125,12.74951171875-12.74951171875,12.74951171875-7.14013671875,0-12.75-5.60986328125-12.75-12.74951171875ZM473.069131549971644,303.993859600634096v84.9990234375h-19.5498046875v-84.9990234375h19.5498046875Z" style="fill: #fff;"/>
        <path d="M490.918252643721644,345.983117413134096c0-24.98974609375,18.7001953125-44.5390625,44.02978515625-44.5390625s44.029296875,19.54931640625,44.029296875,44.5390625c0,26.35009765625-20.0595703125,45.0498046875-44.029296875,45.0498046875s-44.02978515625-18.69970703125-44.02978515625-45.0498046875ZM558.577920612471644,345.473351788134096c0-15.1298828125-10.0302734375-25.669921875-23.6298828125-25.669921875-13.60009765625,0-23.6298828125,10.5400390625-23.6298828125,25.669921875,0,15.2998046875,9.35009765625,27.19970703125,23.6298828125,27.19970703125s23.6298828125-11.89990234375,23.6298828125-27.19970703125Z" style="fill: #fff;"/>
        <path d="M614.336221393721644,303.993859600634096v7.81982421875c4.93017578125-4.9296875,12.75-10.02978515625,24.1396484375-10.02978515625,17.509765625,0,32.8095703125,13.93994140625,32.8095703125,31.95947265625v55.24951171875h-19.5498046875v-48.109375c0-12.41015625-7.1396484375-20.06005859375-18.01953125-20.06005859375-12.919921875,0-19.3798828125,11.0498046875-19.3798828125,20.56982421875v47.599609375h-19.5498046875v-84.9990234375h19.5498046875Z" style="fill: #fff;"/>
        <path d="M261.163858112471644,503.811242413134096c10.2001953125-9.68994140625,16.66015625-15.2998046875,16.66015625-24.4794921875,0-10.5400390625-7.47998046875-17.509765625-18.18994140625-17.509765625-11.89990234375,0-17.849609375,9.1796875-20.56982421875,16.65966796875l-21.419921875-3.73974609375c5.10009765625-17.33984375,19.5498046875-34,42.669921875-34,22.26953125,0,39.26953125,14.4501953125,39.26953125,37.06005859375,0,13.76953125-7.47998046875,24.4794921875-16.830078125,32.8095703125l-34.50927734375,30.939453125h50.8291015625v20.56982421875h-80.2392578125v-18.69970703125l42.32958984375-39.60986328125Z" style="fill: #fff;"/>
        <path d="M310.974404987471644,502.111535381884096c0-37.0595703125,18.52978515625-61.70947265625,46.40966796875-61.70947265625,27.87939453125,0,46.5791015625,24.64990234375,46.5791015625,61.70947265625,0,37.2294921875-18.69970703125,62.04931640625-46.5791015625,62.04931640625-27.8798828125,0-46.40966796875-24.81982421875-46.40966796875-62.04931640625ZM381.693643268721644,502.281457256884096c0-25.669921875-10.02978515625-41.98974609375-23.9697265625-41.98974609375-14.27978515625,0-24.3095703125,16.31982421875-24.3095703125,41.98974609375s10.02978515625,41.98974609375,24.3095703125,41.98974609375c13.93994140625,0,23.9697265625-16.31982421875,23.9697265625-41.98974609375Z" style="fill: #fff;"/>
        <path d="M454.792764362471644,503.811242413134096c10.2001953125-9.68994140625,16.66015625-15.2998046875,16.66015625-24.4794921875,0-10.5400390625-7.47998046875-17.509765625-18.18994140625-17.509765625-11.89990234375,0-17.849609375,9.1796875-20.56982421875,16.65966796875l-21.419921875-3.73974609375c5.10009765625-17.33984375,19.5498046875-34,42.669921875-34,22.26953125,0,39.26953125,14.4501953125,39.26953125,37.06005859375,0,13.76953125-7.47998046875,24.4794921875-16.830078125,32.8095703125l-34.50927734375,30.939453125h50.8291015625v20.56982421875h-80.2392578125v-18.69970703125l42.32958984375-39.60986328125Z" style="fill: #fff;"/>
        <path d="M501.884561237471644,533.220910381884096l22.43994140625-3.56982421875c3.22998046875,7.14013671875,10.8798828125,14.6201171875,23.11962890625,14.6201171875,11.89990234375,0,20.22998046875-7.990234375,20.22998046875-18.7001953125,0-10.70947265625-8.5-19.20947265625-22.27001953125-19.20947265625h-31.95947265625v-63.74951171875h65.958984375v21.25h-45.04931640625v23.28955078125h13.93994140625c23.11962890625,0,40.62939453125,15.4697265625,40.62939453125,38.07958984375,0,21.25-18.86962890625,38.9296875-42.32958984375,38.9296875-23.28955078125,0-40.79931640625-15.2998046875-44.70947265625-30.93994140625Z" style="fill: #fff;"/>
      </g>
    </g>
  </g>
</svg>
