<?xml version="1.0" encoding="UTF-8"?>
<svg id="Calque_2" xmlns="http://www.w3.org/2000/svg" version="1.1" viewBox="0 0 807.3 807.3">
  <!-- Generator: Adobe Illustrator 30.0.0, SVG Export Plug-In . SVG Version: 2.1.1 Build 123)  -->
  <defs>
    <style>
      .st0 {
        fill: #ea5b0c;
      }

      .st1 {
        fill: #fff;
      }
    </style>
  </defs>
  <g id="Calque_1-2">
    <circle class="st0" cx="403.6" cy="403.6" r="403.6"/>
  </g>
  <g>
    <path class="st1" d="M243.3,260.9v18h-54.3v26.5h50.2v17.7h-50.2v26.5h55.2v18.3h-74.5v-107.1h73.6Z"/>
    <path class="st1" d="M255.8,329.9c0-22.3,14.8-39.1,33.6-39.1s16.5,3.8,21.4,8.5v-41.4h17.2v110.1h-17.2v-8.1h-.8c-3.4,4.3-10.5,9.6-20.7,9.6-19.3,0-33.6-17.7-33.6-39.6h.1ZM311.1,330.2c0-13.6-7-22.9-18.7-22.9s-18.3,10-18.3,22.8,7.6,22.9,18.3,22.9,18.7-9.8,18.7-22.8Z"/>
    <path class="st1" d="M345.3,270.7c0-6.3,5-11.2,11.2-11.2s11.2,5,11.2,11.2-4.9,11.2-11.2,11.2-11.2-4.9-11.2-11.2ZM365.3,293v75h-17.2v-75h17.2Z"/>
    <path class="st1" d="M393.6,347.8v-39.4h-13.6v-15.3h13.6v-19.6h17.2v19.6h22.2v15.3h-22.2v33.7c0,6.9,3,11.4,10.2,11.4s7-.8,9.9-1.6v15c-2.4,1-6.6,2.9-15.3,2.9-12.6,0-22-9.6-22-21.9h0Z"/>
    <path class="st1" d="M444.8,270.7c0-6.3,5-11.2,11.2-11.2s11.2,5,11.2,11.2-5,11.2-11.2,11.2-11.2-4.9-11.2-11.2ZM464.7,293v75h-17.2v-75h17.2Z"/>
    <path class="st1" d="M480.5,330.1c0-22,16.5-39.3,38.8-39.3s38.8,17.2,38.8,39.3-17.7,39.7-38.8,39.7-38.8-16.5-38.8-39.7ZM540.2,329.6c0-13.3-8.8-22.6-20.8-22.6s-20.8,9.3-20.8,22.6,8.2,24,20.8,24,20.8-10.5,20.8-24Z"/>
    <path class="st1" d="M589.4,293v6.9c4.3-4.3,11.2-8.8,21.3-8.8,15.5,0,28.9,12.3,28.9,28.2v48.7h-17.2v-42.4c0-10.9-6.3-17.7-15.9-17.7s-17.1,9.8-17.1,18.1v42h-17.2v-75h17.2Z"/>
    <path class="st1" d="M278.2,496.6c9-8.5,14.7-13.5,14.7-21.6s-6.6-15.4-16-15.4-15.7,8.1-18.1,14.7l-18.9-3.3c4.5-15.3,17.2-30,37.6-30s34.6,12.8,34.6,32.7-6.6,21.6-14.8,28.9l-30.4,27.3h44.8v18.1h-70.8v-16.5l37.3-34.9h0Z"/>
    <path class="st1" d="M322.2,495.1c0-32.7,16.3-54.4,40.9-54.4s41.1,21.7,41.1,54.4-16.5,54.7-41.1,54.7-40.9-21.9-40.9-54.7h0ZM384.6,495.2c0-22.6-8.8-37-21.1-37s-21.4,14.4-21.4,37,8.8,37,21.4,37,21.1-14.4,21.1-37Z"/>
    <path class="st1" d="M449.1,496.6c9-8.5,14.7-13.5,14.7-21.6s-6.6-15.4-16-15.4-15.7,8.1-18.1,14.7l-18.9-3.3c4.5-15.3,17.2-30,37.6-30s34.6,12.8,34.6,32.7-6.6,21.6-14.8,28.9l-30.4,27.3h44.8v18.1h-70.8v-16.5l37.3-34.9h0Z"/>
    <path class="st1" d="M566.8,513.8c0,20.2-15.9,36-36.7,36s-36.9-18.3-36.9-36,5.7-22.8,13.6-33.7l27.1-37.5h22l-28,38.8c1.8-.3,3.9-.6,6.3-.6,14.1,0,32.5,11.4,32.5,33h.1ZM548.7,514.4c0-10-8.1-17.8-18.1-17.8s-18.3,7.8-18.3,17.8,8.1,18,18.3,18,18.1-7.8,18.1-18Z"/>
  </g>
</svg>