<?xml version="1.0" encoding="UTF-8"?>
<svg id="Calque_2" data-name="Calque 2" xmlns="http://www.w3.org/2000/svg" viewBox="0 0 807.283304213493466 807.283304213493466">
  <g id="Calque_1-2" data-name="Calque 1">
    <g>
      <circle cx="403.641652106747188" cy="403.641652106749007" r="403.641652106745823" style="fill: #1754ff;"/>
      <g>
        <path d="M111.399209674971644,295.559777569384096l-13.35595703125-18.17919921875,49.15771484375-38.955078125h22.07470703125v130.5927734375h-23.55908203125v-100.72705078125l-34.3173828125,27.2685546875Z" style="fill: #fff;"/>
        <path d="M238.279092487471644,305.391320538134096c11.13037109375-10.5732421875,18.17919921875-16.69482421875,18.17919921875-26.7119140625,0-11.50146484375-8.162109375-19.10693359375-19.8486328125-19.10693359375-12.98486328125,0-19.4775390625,10.01708984375-22.44580078125,18.17919921875l-23.373046875-4.0810546875c5.56494140625-18.9208984375,21.33251953125-37.10009765625,46.56103515625-37.10009765625,24.30029296875,0,42.8505859375,15.767578125,42.8505859375,40.43896484375,0,15.02587890625-8.162109375,26.71240234375-18.36474609375,35.8017578125l-37.65673828125,33.76123046875h55.46484375v22.44580078125h-87.556640625v-20.4052734375l46.18994140625-43.2216796875Z" style="fill: #fff;"/>
        <path d="M478.868936237471644,312.255090069384096v21.33251953125h-176.41162109375v-21.33251953125h176.41162109375Z" style="fill: #fff;"/>
        <path d="M507.056924518721644,295.559777569384096l-13.35595703125-18.17919921875,49.15771484375-38.955078125h22.07470703125v130.5927734375h-23.55908203125v-100.72705078125l-34.3173828125,27.2685546875Z" style="fill: #fff;"/>
        <path d="M581.812783893721644,337.483117413134096l24.48583984375-3.8955078125c3.5244140625,7.791015625,11.8720703125,15.953125,25.22802734375,15.953125,12.9853515625,0,22.07470703125-8.71875,22.07470703125-20.4052734375s-9.27490234375-20.96142578125-24.30029296875-20.96142578125h-34.87451171875v-69.56298828125h71.974609375v23.1875h-49.15771484375v25.41357421875h15.2109375c25.22802734375,0,44.3349609375,16.880859375,44.3349609375,41.55224609375,0,23.18798828125-20.5908203125,42.47998046875-46.18994140625,42.47998046875-25.41357421875,0-44.5205078125-16.6953125-48.78662109375-33.76123046875Z" style="fill: #fff;"/>
        <path d="M69.664834674971644,468.687218975634096l-13.35595703125-18.17919921875,49.15771484375-38.955078125h22.07470703125v130.5927734375h-23.55908203125v-100.72705078125l-34.3173828125,27.2685546875Z" style="fill: #fff;"/>
        <path d="M196.544717487471644,478.518761944384096c11.13037109375-10.57373046875,18.17919921875-16.69482421875,18.17919921875-26.7119140625,0-11.50146484375-8.162109375-19.10693359375-19.8486328125-19.10693359375-12.98486328125,0-19.4775390625,10.01708984375-22.44580078125,18.17919921875l-23.373046875-4.0810546875c5.56494140625-18.9208984375,21.33251953125-37.10009765625,46.56103515625-37.10009765625,24.30029296875,0,42.8505859375,15.767578125,42.8505859375,40.439453125,0,15.025390625-8.162109375,26.7119140625-18.36474609375,35.80126953125l-37.65673828125,33.76123046875h55.46484375v22.44580078125h-87.556640625v-20.4052734375l46.18994140625-43.2216796875Z" style="fill: #fff;"/>
        <path d="M260.722940143721644,528.047570538134096c0-8.533203125,6.86328125-15.2109375,15.58203125-15.2109375s15.58203125,6.677734375,15.58203125,15.2109375c0,8.71875-6.86328125,15.58203125-15.58203125,15.58203125s-15.58203125-6.86328125-15.58203125-15.58203125Z" style="fill: #fff;"/>
        <path d="M360.889932331221644,478.518761944384096c11.13037109375-10.57373046875,18.17919921875-16.69482421875,18.17919921875-26.7119140625,0-11.50146484375-8.162109375-19.10693359375-19.8486328125-19.10693359375-12.98486328125,0-19.4775390625,10.01708984375-22.44580078125,18.17919921875l-23.373046875-4.0810546875c5.56494140625-18.9208984375,21.33251953125-37.10009765625,46.56103515625-37.10009765625,24.30029296875,0,42.8505859375,15.767578125,42.8505859375,40.439453125,0,15.025390625-8.162109375,26.7119140625-18.36474609375,35.80126953125l-37.65673828125,33.76123046875h55.46484375v22.44580078125h-87.55615234375v-20.4052734375l46.189453125-43.2216796875Z" style="fill: #fff;"/>
        <path d="M415.237588581221644,476.663781475634096c0-40.43896484375,20.2197265625-67.3369140625,50.6416015625-67.3369140625,30.42236328125,0,50.82763671875,26.89794921875,50.82763671875,67.3369140625,0,40.625-20.4052734375,67.7080078125-50.82763671875,67.7080078125-30.421875,0-50.6416015625-27.0830078125-50.6416015625-67.7080078125ZM492.406045612471644,476.849328350634096c0-28.0107421875-10.9443359375-45.81884765625-26.15576171875-45.81884765625-15.58203125,0-26.5263671875,17.80810546875-26.5263671875,45.81884765625s10.9443359375,45.81884765625,26.5263671875,45.81884765625c15.21142578125,0,26.15576171875-17.80810546875,26.15576171875-45.81884765625Z" style="fill: #fff;"/>
        <path d="M572.166299518721644,478.518761944384096c11.13037109375-10.57373046875,18.17919921875-16.69482421875,18.17919921875-26.7119140625,0-11.50146484375-8.162109375-19.10693359375-19.8486328125-19.10693359375-12.98486328125,0-19.4775390625,10.01708984375-22.44580078125,18.17919921875l-23.373046875-4.0810546875c5.56494140625-18.9208984375,21.33251953125-37.10009765625,46.56103515625-37.10009765625,24.30029296875,0,42.8505859375,15.767578125,42.8505859375,40.439453125,0,15.025390625-8.162109375,26.7119140625-18.36474609375,35.80126953125l-37.65673828125,33.76123046875h55.46484375v22.44580078125h-87.55615234375v-20.4052734375l46.189453125-43.2216796875Z" style="fill: #fff;"/>
        <path d="M623.547158893721644,510.610558819384096l24.48583984375-3.8955078125c3.5244140625,7.791015625,11.8720703125,15.953125,25.22802734375,15.953125,12.9853515625,0,22.07470703125-8.71875,22.07470703125-20.4052734375s-9.27490234375-20.96142578125-24.30029296875-20.96142578125h-34.87451171875v-69.56298828125h71.974609375v23.1875h-49.15771484375v25.41357421875h15.2109375c25.22802734375,0,44.3349609375,16.880859375,44.3349609375,41.55224609375,0,23.18798828125-20.5908203125,42.47998046875-46.18994140625,42.47998046875-25.41357421875,0-44.5205078125-16.6953125-48.78662109375-33.76123046875Z" style="fill: #fff;"/>
      </g>
    </g>
  </g>
</svg>