<?xml version="1.0" encoding="UTF-8"?>
<svg id="Calque_2" xmlns="http://www.w3.org/2000/svg" version="1.1" viewBox="0 0 1628 129.9">
  <!-- Generator: Adobe Illustrator 30.0.0, SVG Export Plug-In . SVG Version: 2.1.1 Build 123)  -->
  <defs>
    <style>
      .st0 {
        fill: #ea5b0c;
      }

      .st1 {
        fill: #fff;
      }

      .st2 {
        fill: #1754ff;
      }

      .st3 {
        fill: #3df069;
      }
    </style>
  </defs>
  <rect class="st1" y="-.1" width="1628" height="130"/>
  <g id="Calque_1-2">
    <g>
      <rect class="st2" y="-.1" width="47" height="130"/>
      <rect class="st2" x="1581" y="-.1" width="47" height="130"/>
      <rect class="st3" x="958" y="-.1" width="47" height="130"/>
      <circle class="st0" cx="176.6" cy="64.9" r="64.9"/>
    </g>
  </g>
  <g>
    <path d="M1125.9,39v7.1h-26.1v15h24.1v7.1h-24.1v15h26.5v7.2h-33.9v-51.4s33.5,0,33.5,0Z"/>
    <path d="M1131.9,72.2c0-10.7,7.3-18.9,16.6-18.9s8.9,2.7,10.5,4.8v-20.6h6.8v52.9h-6.8v-4.2h-.3c-1.4,2-5,5-10.4,5-9.4,0-16.4-8.2-16.4-18.9h0ZM1159.1,72.2c0-7.6-4.3-12.2-10.2-12.2s-9.8,4.7-9.8,12.2,4.5,12.5,9.8,12.5,10.2-5,10.2-12.4h0Z"/>
    <path d="M1175,44.2c0-2.7,2.2-5,5.1-5s5,2.2,5,5-2.2,5-5,5-5.1-2.2-5.1-5ZM1183.5,54.5v36h-6.8v-36h6.8Z"/>
    <path d="M1197.6,80.3v-19.7h-6.3v-6.2h6.3v-9.4h6.9v9.4h10.6v6.2h-10.6v17.7c0,3.9,1.4,6.4,5.3,6.4s4.2-.6,5.2-1v6.1c-.9.4-3,1.3-6.8,1.3-6.3,0-10.6-4.3-10.6-10.9h0Z"/>
    <path d="M1221.4,44.2c0-2.7,2.2-5,5.1-5s5,2.2,5,5-2.2,5-5,5-5.1-2.2-5.1-5ZM1229.9,54.5v36h-6.8v-36h6.8Z"/>
    <path d="M1238.7,72.3c0-10.9,8.2-18.9,18.5-18.9s18.5,8.1,18.5,18.9-8.3,18.9-18.5,18.9-18.5-8.3-18.5-18.9ZM1268.6,72.2c0-7.3-4.7-12.3-11.4-12.3s-11.4,5-11.4,12.3,4.7,12.5,11.4,12.5,11.4-5.3,11.4-12.5Z"/>
    <path d="M1290,54.5v3.7c1.8-2,5.3-4.7,10.5-4.7,7.6,0,13.8,5.8,13.8,13.2v23.8h-6.8v-21.3c0-5.5-3.2-9-8.6-9s-8.9,4.3-8.9,9.6v20.7h-6.8v-36h6.8Z"/>
    <path d="M1359.7,65.8c4.2-4.1,7.1-6.8,7.1-11s-3.4-8.6-9.1-8.6-9,4.8-10.2,8.4l-7.4-1.3c2.1-7.1,8.1-14.2,17.8-14.2s16.3,6.3,16.3,15.3-3.3,10.2-7.1,13.8l-15.6,15.1h22.5v7.1h-33.1v-6.3l18.7-18.3h0Z"/>
    <path d="M1379.5,65c0-15.7,7.8-26.1,19.3-26.1s19.3,10.4,19.3,26.1-7.9,26.3-19.3,26.3-19.3-10.5-19.3-26.3ZM1410.3,65.1c0-11.7-4.7-19.4-11.3-19.4s-11.5,7.6-11.5,19.4,4.7,19.4,11.5,19.4,11.3-7.6,11.3-19.4Z"/>
    <path d="M1441.3,65.8c4.2-4.1,7.1-6.8,7.1-11s-3.4-8.6-9.1-8.6-9,4.8-10.2,8.4l-7.4-1.3c2.1-7.1,8.1-14.2,17.8-14.2s16.3,6.3,16.3,15.3-3.3,10.2-7.1,13.8l-15.6,15.1h22.5v7.1h-33.1v-6.3l18.7-18.3h0Z"/>
    <path d="M1495.2,74.2c0,9.4-7.4,17.1-17.1,17.1s-17.3-8.6-17.3-17.1,3-10.9,6.6-16.1l13-18.3h8.6l-13.4,18.9c1.1-.3,2.4-.4,3.8-.4,7.3,0,15.7,6,15.7,15.8h.1ZM1488.1,74.5c0-5.9-4.7-9.9-9.9-9.9s-9.9,4-9.9,9.9,4.5,9.9,9.9,9.9,9.9-3.9,9.9-9.9Z"/>
  </g>
</svg>