<?xml version="1.0" encoding="UTF-8"?>
<svg id="Calque_2" xmlns="http://www.w3.org/2000/svg" version="1.1" viewBox="0 0 1637.1 506.8">
  <!-- Generator: Adobe Illustrator 30.0.0, SVG Export Plug-In . SVG Version: 2.1.1 Build 123)  -->
  <defs>
    <style>
      .st0 {
        fill: #ea5b0c;
      }

      .st1 {
        fill: #1754ff;
      }

      .st2 {
        fill: #3df069;
      }
    </style>
  </defs>
  <g id="Calque_1-2">
    <g>
      <g>
        <path d="M32.4,3.4v107.5h64.9v22.1H9.1V3.6l23.4-.2h0Z"/>
        <path d="M193.7,95.3h-68.3c1.8,11.6,12.7,20.5,24.6,20.5s16.1-4.3,21.7-11.1l17.9,8.3c-6.7,10.9-22.1,22.1-40.4,22.1-26.3,0-45.7-20.7-45.7-47.8s19.2-47.7,46-47.7,44.4,22.8,44.4,47.7-.2,5.8-.4,8h.2ZM149.5,58.9c-12.3,0-21.7,8.2-24.5,18.5h47.3c-1.6-10.5-10-18.5-22.8-18.5Z"/>
        <path d="M202.2,107.5l20.8-4c3.8,8.5,13.6,13.2,22.7,13.2s16.1-4.3,16.1-9.8-10-9.6-17-11.4l-11.8-3.1c-11.4-3.1-24.6-9.2-24.6-25.6s16.1-27.2,34.8-27.2,35,13.2,37.9,25l-19.4,3.8c-2.7-4.7-8.2-11.1-18.8-11.1s-13.2,3.6-13.2,8.9,6.2,7.6,14.1,9.8l10,2.7c14.7,4,29,10.5,29,27.2s-19.2,29.4-37.1,29.2c-22.1-.2-38.2-12.7-43.3-27.7h-.2,0Z"/>
        <path d="M365.3,42.4v12c4.7-8.3,18.1-15.4,33.3-14.7v23.4c-9.2-1.6-19.8-1.3-26.6,5.3-5.8,5.4-6.7,12.1-6.7,19.4v45.3h-20.8V42.4h20.8Z"/>
        <path d="M495.6,95.3h-68.3c1.8,11.6,12.7,20.5,24.6,20.5s16.1-4.3,21.7-11.1l17.9,8.3c-6.7,10.9-22.1,22.1-40.4,22.1-26.3,0-45.7-20.7-45.7-47.8s19.2-47.7,46-47.7,44.4,22.8,44.4,47.7-.2,5.8-.4,8h.2ZM451.4,58.9c-12.3,0-21.7,8.2-24.5,18.5h47.3c-1.6-10.5-10-18.5-22.8-18.5Z"/>
        <path d="M532.6,42.4v8.3c5.3-5.3,13.6-10.7,25.7-10.7,18.7,0,35,14.9,35,34.1v58.9h-20.8v-51.3c0-13.2-7.6-21.4-19.2-21.4s-20.7,11.8-20.7,21.9v50.7h-20.8V42.4h20.8Z"/>
        <path d="M611,87c0-27,17.9-47.3,40.6-47.3s19.9,4.5,25.9,10.3V0h20.8v133h-20.8v-9.8h-.9c-4.2,5.3-12.7,11.6-25,11.6-23.4,0-40.6-21.4-40.6-47.8h0ZM677.9,87.3c0-16.5-8.5-27.7-22.7-27.7s-22.1,12.1-22.1,27.5,9.2,27.7,22.1,27.7,22.7-11.8,22.7-27.5Z"/>
        <path d="M805.3,95.3h-68.3c1.8,11.6,12.7,20.5,24.6,20.5s16.1-4.3,21.7-11.1l17.9,8.3c-6.7,10.9-22.1,22.1-40.4,22.1-26.3,0-45.7-20.7-45.7-47.8s19.2-47.7,46-47.7,44.4,22.8,44.4,47.7-.2,5.8-.4,8h.2ZM761.1,58.9c-12.3,0-21.7,8.2-24.5,18.5h47.3c-1.6-10.5-10-18.5-22.8-18.5Z"/>
        <path d="M860.9,61.1h-42v-18.7h68.5v16.9l-44.9,54.4h46.9v19.4h-74.1v-16.7l45.7-55.3h-.1Z"/>
        <path d="M973.5,77.6v20.8h-64.5v-20.8s64.5,0,64.5,0Z"/>
        <path d="M1013,42.4l18.8,65.8,18.8-65.8h23l-30.3,90.6h-23.7l-29.9-90.6h23.3Z"/>
        <path d="M1081.5,87.2c0-26.6,19.9-47.5,46.9-47.5s46.9,20.8,46.9,47.5-21.4,48-46.9,48-46.9-19.9-46.9-48ZM1153.6,86.6c0-16.1-10.7-27.4-25.2-27.4s-25.2,11.2-25.2,27.4,10,29,25.2,29,25.2-12.7,25.2-29Z"/>
        <path d="M1192.2,100.4v-58h20.8v52.2c0,13.2,6.7,20.3,18.3,20.3s19.8-10.7,19.8-21.4v-51.1h20.8v90.6h-20.8v-9.1h-.9c-4.2,4.9-12.3,11.1-24.6,11.1-18.7,0-33.3-14.7-33.3-34.6h-.1Z"/>
        <path d="M1287,107.5l20.8-4c3.8,8.5,13.6,13.2,22.7,13.2s16.1-4.3,16.1-9.8-10-9.6-17-11.4l-11.8-3.1c-11.4-3.1-24.6-9.2-24.6-25.6s16.1-27.2,34.8-27.2,35,13.2,37.9,25l-19.4,3.8c-2.7-4.7-8.2-11.1-18.8-11.1s-13.2,3.6-13.2,8.9,6.2,7.6,14.1,9.8l10,2.7c14.7,4,29,10.5,29,27.2s-19.2,29.4-37.1,29.2c-22.1-.2-38.2-12.7-43.3-27.7h-.2Z"/>
        <path d="M0,256.1c0-27,17.9-47.3,40.6-47.3s19.9,4.5,25.9,10.3v-50h20.8v133h-20.8v-9.8h-.9c-4.2,5.3-12.7,11.6-25,11.6-23.4,0-40.6-21.4-40.6-47.8h0ZM66.9,256.5c0-16.5-8.5-27.7-22.7-27.7s-22.1,12.1-22.1,27.5,9.2,27.7,22.1,27.7,22.7-11.8,22.7-27.5h0Z"/>
        <path d="M194.3,264.4h-68.3c1.8,11.6,12.7,20.5,24.6,20.5s16.1-4.3,21.7-11.1l17.9,8.3c-6.7,10.9-22.1,22.1-40.4,22.1-26.3,0-45.7-20.7-45.7-47.8s19.2-47.7,46-47.7,44.4,22.8,44.4,47.7-.2,5.8-.4,8h.2ZM150,228c-12.3,0-21.7,8.2-24.5,18.5h47.3c-1.6-10.5-10-18.5-22.8-18.5Z"/>
        <path d="M202.8,276.6l20.8-4c3.8,8.5,13.6,13.2,22.7,13.2s16.1-4.3,16.1-9.8-10-9.6-17-11.4l-11.8-3.1c-11.4-3.1-24.6-9.2-24.6-25.6s16.1-27.2,34.8-27.2,35,13.2,37.9,25l-19.4,3.8c-2.7-4.7-8.2-11.1-18.8-11.1s-13.2,3.6-13.2,8.9,6.2,7.6,14.1,9.8l10,2.7c14.7,4,29,10.5,29,27.2s-19.2,29.4-37.1,29.2c-22.1-.2-38.2-12.7-43.3-27.7h-.2,0Z"/>
        <path d="M336.1,230v-18.5h19.4v-14c0-15.4,10-30.1,29.2-30.1s16.7,2.4,18.5,2.9v18.3c-1.4-.4-6-1.6-12.1-1.6s-14.7,5.8-14.7,14.1v10.3h28.4v18.5h-28.4v72.1h-20.8v-72.1h-19.5Z"/>
        <path d="M409,256.3c0-26.6,19.9-47.5,46.9-47.5s46.9,20.8,46.9,47.5-21.4,48-46.9,48-46.9-19.9-46.9-48h0ZM481.1,255.8c0-16.1-10.7-27.4-25.2-27.4s-25.2,11.2-25.2,27.4,10,29,25.2,29,25.2-12.7,25.2-29h0Z"/>
        <path d="M540.6,211.5v12c4.7-8.3,18.1-15.4,33.3-14.7v23.4c-9.2-1.6-19.8-1.3-26.6,5.3-5.8,5.4-6.7,12.1-6.7,19.4v45.3h-20.8v-90.6h20.8Z"/>
        <path d="M609.2,211.5v7.8c5.3-5.1,13.2-10.1,24.8-10.1s21.9,5.8,28.1,14.9c5.8-7.6,17-14.9,30.6-14.9s33.9,14.3,33.9,33.5v59.4h-20.8v-51.3c0-13.2-7.2-21.4-18.3-21.4s-19.6,11.8-19.6,21.9v50.7h-20.8v-51.3c0-13.2-7.2-21.4-18.3-21.4s-19.6,11.8-19.6,21.9v50.7h-20.8v-90.6h20.8v.2h0Z"/>
        <path d="M745.3,276c0-18.1,14.7-26.5,31.5-29.5,7.1-1.3,23.7-3.8,28.8-4.5,0-7.8-7.2-14.1-17.4-14.1s-15,4.5-17.4,9.8l-21.6-2.2c2.7-12.3,16.7-26.6,39-26.6s37.9,14.7,37.9,34.6v58.7h-20.5v-10.7h-1.3c-5.8,6.7-15,12.9-27.2,12.9-18.7,0-31.9-11.4-31.9-28.3h.1ZM804.6,273.9c1.3-2.7,1.3-5.3,1.3-8v-7.8c-5.1.7-11.6,2-19.6,3.4-8.5,1.6-18.3,4.3-18.3,13.4s6.5,10.9,15,10.9,18.7-5.8,21.6-12h0Z"/>
        <path d="M854.6,277.7v-47.7h-16.5v-18.5h16.5v-23.7h20.8v23.7h26.8v18.5h-26.8v40.8c0,8.3,3.6,13.8,12.3,13.8s8.5-.9,12-2v18.1c-2.9,1.3-8,3.4-18.5,3.4-15.2,0-26.6-11.6-26.6-26.5h0Z"/>
        <path d="M1002.5,264.4h-68.3c1.8,11.6,12.7,20.5,24.6,20.5s16.1-4.3,21.7-11.1l17.9,8.3c-6.7,10.9-22.1,22.1-40.4,22.1-26.3,0-45.7-20.7-45.7-47.8s19.2-47.7,46-47.7,44.4,22.8,44.4,47.7-.2,5.8-.4,8h.2ZM958.2,228c-12.3,0-21.7,8.2-24.5,18.5h47.3c-1.6-10.5-10-18.5-22.8-18.5Z"/>
        <path d="M1017.7,269.5v-58h20.8v52.2c0,13.2,6.7,20.3,18.3,20.3s19.8-10.7,19.8-21.4v-51.1h20.8v90.6h-20.8v-9.1h-.9c-4.2,4.9-12.3,11.1-24.6,11.1-18.7,0-33.3-14.7-33.3-34.6h-.1Z"/>
        <path d="M1141.8,211.5v12c4.7-8.3,18.1-15.4,33.3-14.7v23.4c-9.2-1.6-19.8-1.3-26.6,5.3-5.8,5.4-6.7,12.1-6.7,19.4v45.3h-20.8v-90.6h20.8,0Z"/>
        <path d="M1187.8,252.1c0-8.3,6.7-14.9,15.2-14.9s15.2,6.5,15.2,14.9-6.7,15.2-15.2,15.2-15.2-6.7-15.2-15.2h0Z"/>
        <path d="M1271.7,211.5v12c4.7-8.3,18.1-15.4,33.3-14.7v23.4c-9.2-1.6-19.8-1.3-26.6,5.3-5.8,5.4-6.7,12.1-6.7,19.4v45.3h-20.8v-90.6h20.8,0Z"/>
        <path d="M1316.9,184.5c0-7.6,6-13.6,13.6-13.6s13.6,6,13.6,13.6-6,13.6-13.6,13.6-13.6-6-13.6-13.6ZM1341,211.5v90.6h-20.8v-90.6h20.8Z"/>
        <path d="M1360,256.7c0-27,21.2-47.8,47.3-47.8s34.4,12.5,40.6,24.5l-17.6,8.3c-4.5-7.1-11.6-13.2-23-13.2s-25.9,11.8-25.9,27.7,10.5,28.6,26.1,28.6,19.4-6.2,24.6-14.5l17.8,8.5c-8,14.5-23.6,25.6-43.3,25.6s-46.6-20.3-46.6-47.7h0Z"/>
        <path d="M1548.1,264.4h-68.3c1.8,11.6,12.7,20.5,24.6,20.5s16.1-4.3,21.7-11.1l17.9,8.3c-6.7,10.9-22.1,22.1-40.4,22.1-26.3,0-45.7-20.7-45.7-47.8s19.2-47.7,46-47.7,44.4,22.8,44.4,47.7-.2,5.8-.4,8h.2ZM1503.9,228c-12.3,0-21.7,8.2-24.5,18.5h47.3c-1.6-10.5-10-18.5-22.8-18.5Z"/>
        <path d="M1556.6,276.6l20.8-4c3.8,8.5,13.6,13.2,22.7,13.2s16.1-4.3,16.1-9.8-10-9.6-17-11.4l-11.8-3.1c-11.4-3.1-24.6-9.2-24.6-25.6s16.1-27.2,34.8-27.2,35,13.2,37.9,25l-19.4,3.8c-2.7-4.7-8.2-11.1-18.8-11.1s-13.2,3.6-13.2,8.9,6.2,7.6,14.1,9.8l10,2.7c14.7,4,29,10.5,29,27.2s-19.2,29.4-37.1,29.2c-22.1-.2-38.2-12.7-43.3-27.7h-.2Z"/>
        <path d="M0,425.2c0-27,17.9-47.3,40.6-47.3s19.9,4.5,25.9,10.3v-50h20.8v133h-20.8v-9.8h-.9c-4.2,5.3-12.7,11.6-25,11.6-23.4,0-40.6-21.4-40.6-47.8h0ZM66.9,425.6c0-16.5-8.5-27.7-22.7-27.7s-22.1,12.1-22.1,27.5,9.2,27.7,22.1,27.7,22.7-11.8,22.7-27.5Z"/>
        <path d="M146.1,355.1c0,18.3-26.3,37.3-36.4,45.1h-2.4v-11.8c6.2-5.3,14.9-12.5,21.2-21.6h-1.4c-7.2,0-13.2-5.8-13.2-13.4s8.2-15,16.1-15,16.1,6.9,16.1,16.7h0Z"/>
        <path d="M141.9,445.2c0-18.1,14.7-26.5,31.5-29.5,7.1-1.3,23.7-3.8,28.8-4.5,0-7.8-7.2-14.1-17.4-14.1s-15,4.5-17.4,9.8l-21.6-2.2c2.7-12.3,16.7-26.6,39-26.6s37.9,14.7,37.9,34.6v58.7h-20.5v-10.7h-1.3c-5.8,6.7-15,12.9-27.2,12.9-18.7,0-31.9-11.4-31.9-28.3h0ZM201.1,443c1.3-2.7,1.3-5.3,1.3-8v-7.8c-5.1.7-11.6,2-19.6,3.4-8.5,1.6-18.3,4.3-18.3,13.4s6.5,10.9,15,10.9,18.7-5.8,21.6-12h0Z"/>
        <path d="M265.3,380.7v8c6-5.8,14.5-10.7,26.1-10.7,23,0,40.4,20.5,40.4,47.3s-17.6,47.8-40.2,47.8-21.2-5.1-26.3-11.2v42.4h-20.8v-123.6h20.8ZM309.7,425.4c0-15.4-8.2-27.5-22.1-27.5s-22.7,11.2-22.7,27.7,8.3,27.5,22.7,27.5,22.1-11.1,22.1-27.7Z"/>
        <path d="M370.8,380.7v8c6-5.8,14.5-10.7,26.1-10.7,23,0,40.4,20.5,40.4,47.3s-17.6,47.8-40.2,47.8-21.2-5.1-26.3-11.2v42.4h-20.8v-123.6h20.8ZM415.2,425.4c0-15.4-8.2-27.5-22.1-27.5s-22.7,11.2-22.7,27.7,8.3,27.5,22.7,27.5,22.1-11.1,22.1-27.7Z"/>
        <path d="M476.2,380.7v12c4.7-8.3,18.1-15.4,33.3-14.7v23.4c-9.2-1.6-19.8-1.3-26.6,5.3-5.8,5.4-6.7,12.1-6.7,19.4v45.3h-20.8v-90.6h20.8Z"/>
        <path d="M606.5,433.6h-68.3c1.8,11.6,12.7,20.5,24.6,20.5s16.1-4.3,21.7-11.1l17.9,8.3c-6.7,10.9-22.1,22.1-40.4,22.1-26.3,0-45.7-20.7-45.7-47.8s19.2-47.7,46-47.7,44.4,22.8,44.4,47.7-.2,5.8-.4,8h.2ZM562.3,397.2c-12.3,0-21.7,8.2-24.5,18.5h47.3c-1.6-10.5-10-18.5-22.8-18.5h0Z"/>
        <path d="M643.5,380.7v8.3c5.3-5.3,13.6-10.7,25.7-10.7,18.7,0,35,14.9,35,34.1v58.9h-20.8v-51.3c0-13.2-7.6-21.4-19.2-21.4s-20.7,11.8-20.7,21.9v50.7h-20.8v-90.6h20.8Z"/>
        <path d="M733.2,446.8v-47.7h-16.5v-18.5h16.5v-23.7h20.8v23.7h26.8v18.5h-26.8v40.8c0,8.3,3.6,13.8,12.3,13.8s8.5-.9,12-2v18.1c-2.9,1.3-8,3.4-18.5,3.4-15.2,0-26.6-11.6-26.6-26.5h0Z"/>
        <path d="M795,353.7c0-7.6,6-13.6,13.6-13.6s13.6,6,13.6,13.6-6,13.6-13.6,13.6-13.6-6-13.6-13.6ZM819.1,380.7v90.6h-20.8v-90.6h20.8Z"/>
        <path d="M853.9,421.3c0-8.3,6.7-14.9,15.2-14.9s15.2,6.5,15.2,14.9-6.7,15.2-15.2,15.2-15.2-6.7-15.2-15.2Z"/>
        <path d="M1000.3,433.6h-68.3c1.8,11.6,12.7,20.5,24.6,20.5s16.1-4.3,21.7-11.1l17.9,8.3c-6.7,10.9-22.1,22.1-40.4,22.1-26.3,0-45.7-20.7-45.7-47.8s19.2-47.7,46-47.7,44.4,22.8,44.4,47.7-.2,5.8-.4,8h.2ZM956.1,397.2c-12.3,0-21.7,8.2-24.5,18.5h47.3c-1.6-10.5-10-18.5-22.8-18.5Z"/>
        <path d="M1008.8,445.7l20.8-4c3.8,8.5,13.6,13.2,22.7,13.2s16.1-4.3,16.1-9.8-10-9.6-17-11.4l-11.8-3.1c-11.4-3.1-24.6-9.2-24.6-25.6s16.1-27.2,34.8-27.2,35,13.2,37.9,25l-19.4,3.8c-2.7-4.7-8.2-11.1-18.8-11.1s-13.2,3.6-13.2,8.9,6.2,7.6,14.1,9.8l10,2.7c14.7,4,29,10.5,29,27.2s-19.2,29.4-37.1,29.2c-22.1-.2-38.2-12.7-43.3-27.7h-.2,0Z"/>
      </g>
      <rect class="st1" x="1590.5" y="375.2" width="46.6" height="129.4"/>
      <rect class="st0" x="1176.3" y="375.2" width="46.6" height="129.4"/>
      <circle class="st2" cx="1453.5" cy="439.7" r="67"/>
    </g>
  </g>
</svg>