<?xml version="1.0" encoding="UTF-8"?>
<svg id="Calque_2" data-name="Calque 2" xmlns="http://www.w3.org/2000/svg" viewBox="0 0 261.537135591294827 93.080994035450203">
  <g id="Calque_1-2" data-name="Calque 1">
    <g>
      <path d="M91.201836069210913,70.155259678860602h6.013305491971551V23.593881446709929h-6.055067124363632v23.25980829989021c0,12.77828213535031-7.140805847158845,19.042138305860135-16.119008824660341,19.042138305860135-9.56282759935857,0-11.692543412560553-7.349601265239471-11.692543412560553-14.907991576619679v-27.393955029130666h-6.055067124359994v27.728028972438551c0,10.189213853602269,3.215448164064583,20.04436013582017,17.747610536920547,20.04436013582017,7.558396683321916,0,13.488185282451013-4.217669994010066,15.910213406579715-9.354032181279763h.250557050472707c.041761632384805.835181672329782,0,8.143021305171715,0,8.143021305171715" style="fill: #161615;"/>
      <path d="M135.925817171028939,46.77017285375041l-.12527215330374,3.131931271218491c0,7.767192101411638-3.006659117919298,16.035485559881636-15.910213406576986,16.035485559881636-5.052851666348033,0-10.565043057380535-2.923135853130589-10.565043057380535-8.685890666562045,0-7.934225887098364,10.063941700300347-10.481532536457962,20.127883400597057-10.481532536457962l6.472645216664205.000006371919881h0ZM141.56329345922677,70.155259678860602v-30.901721876041847c0-11.776060305408464-7.266078000458947-16.828911971748312-18.541030576860067-16.828911971748312-6.055067124359994,0-13.321145124824397,2.338508045308117-17.747610536926004,6.556174853358243l3.549522107385201,4.13414991521131c3.925351311161648-3.466005214530014,8.978202977503315-5.303402344879942,14.198088429540803-5.261643898451439,7.474873418543211,0,12.778282135358495,2.672581988630554,12.778282135358495,11.274952576390206v2.839618960289954h-6.723215010994863c-9.186998395582123,0-25.80710857732447,1.419809480161348-25.80710857732447,15.617894723731297,0,9.855146282210626,8.477088876561538,13.822259225758899,16.411314763658083,13.822259225758899,7.85070262231784,0,12.19365751350324-2.380266491738439,15.617894723718564-8.31005509086026h.208795418082445v7.05728258236195h6.055067124361813Z" style="fill: #161615;"/>
      <rect x="151.167882690972874" y=".70990394357068" width="6.055067124359994" height="69.445355735289922" style="fill: #161615;"/>
      <rect x="167.203368250862695" y="23.593881446709929" width="6.055067124359994" height="46.561378232150673" style="fill: #161615;"/>
      <path d="M183.155343289822667,70.155259678860602h6.055067124369998V29.064320763260184h10.899123372620124v-5.428680870121752h-10.899123372620124v-5.804511666879989c0-8.351816723257798,2.630817170280352-12.402448152628494,8.143021305169896-12.402448152628494,2.296749598899623,0,4.050636208330616.292313903890317,5.428680870119933,1.002218643980086l1.211010876101682-5.219885452041126c-1.795635497961484-.79342242941857-4.008874575941263-1.211013265568909-6.932010429080947-1.211013265568909-5.929794971050796,0-13.905769746680562,3.633039796710364-13.905769746680562,15.617897113188519v7.97598433352141h0v5.428680870109019h0v41.132697362041654Z" style="fill: #161615;"/>
      <path d="M204.66127135221268,42.970096881850623c0-2.422028124110511,3.716555893080113-15.116790180662065,16.91241612074009-15.116790180662065,8.978202977499677,0,16.118996080799661,6.848490350250358,16.118996080799661,15.116786994702125l-33.031412201539752.00000318595994ZM237.901504459552598,57.669296226380538c-3.006659117909294,5.052851666339848-9.479317078439635,8.268299830408068-15.617907467580153,8.268299830408068-14.114565164760279,0-17.622338383619535-12.485963452498254-17.622338383619535-17.538815118838102h39.086492069762244v-4.217666808050126c0-10.773841661430197-7.558383939463056-21.756481926910055-21.881770010022592-21.756481926910055-13.613451063830325,0-23.259814671820095,10.481529350508936-23.259814671820095,24.387302283139434,0,14.406883847630525,9.354032181270668,24.596097701229155,23.593882243199914,24.596097701229155,8.268293458480912,0,15.409112049500436-2.92313585312877,20.169632289132096-9.980418435508909l-4.468176069051879-3.758317525469465Z" style="fill: #161615;"/>
      <path d="M43.262409989283697,46.853689746600139c0,10.481532536459781-7.767188915433508,19.042138305860135-18.74982918090609,19.042138305860135-11.400229508650227,0-18.457515276997583-8.560612141340243-18.457515276997583-19.042144677801843,0-10.481532536457962,7.057284175363748-19.042141491818256,18.457515276997583-19.042141491818256,10.940881819045899.000006371919881,18.74982918090609,8.560618513258305,18.74982918090609,19.042147863759965M43.345930068097005,93.080994035450203h6.055067124361813V23.552123000288702h-6.055067124361813v8.184779751591122h-.208795418082445c-3.716559079042781-6.43089951410002-11.692543412560553-9.354035367239703-18.624550655671555-9.354035367239703-14.3233669547717-.041758446430322-24.512583994343004,10.2727339324083-24.512583994343004,24.470822361960018,0,14.198088429529889,10.189217039571304,24.470819175980068,24.470822361954561,24.470819175980068,6.973768875499445,0,14.907994762592352-2.923135853141503,18.624550655669736-9.354032181281582h.208795418082445v31.110517294151578h.041761632390262Z" style="fill: #161615;"/>
      <rect x="255.482068466924829" y="74.080610990040441" width="6.055067124369998" height="19.000383045409762" style="fill: #1d60a1;"/>
      <rect x="135.508226334864958" y="74.080610990040441" width="6.055067124361813" height="19.000383045409762" style="fill: #1d60a1;"/>
      <rect x="91.160080808749626" y=".70990394357068" width="6.013305491975188" height="19.000381452427973" style="fill: #009973;"/>
      <rect x="183.155343289822667" y="74.080610990040441" width="6.055067124369998" height="19.000383045409762" style="fill: #009973;"/>
      <rect x="167.203368250862695" y=".70990394357068" width="6.055067124359994" height="19.000381452427973" style="fill: #ea5b0c;"/>
    </g>
  </g>
</svg>