<?xml version="1.0" encoding="UTF-8"?>
<svg id="Calque_2" data-name="Calque 2" xmlns="http://www.w3.org/2000/svg" viewBox="0 0 1637.069081475572602 506.750670094354064">
  <g id="Calque_1-2" data-name="Calque 1">
    <g>
      <g>
        <path d="M32.436459535570066,3.443103612387858v107.456165912655706h64.872412061329669v22.107655708219681H9.060772295238166V3.624106114173628l23.375687240331899-.18100250178577Z"/>
        <path d="M193.713744704491546,95.315309028221236h-68.315515673716618c1.812053057085905,11.597342369272155,12.684878409410885,20.476605152916818,24.64422578225367,20.476605152916818,8.879262783644663,0,16.127982021796015-4.348623131119894,21.745143694839498-11.053320844299378l17.939528069074186,8.335241258670067c-6.704697713180394,10.87282535232589-22.107148698411038,22.107655708219681-40.409188780862678,22.107655708219681-26.275276337553805,0-45.664852460143265-20.657607654702588-45.664852460143265-47.838910520800709,0-26.275276337553805,19.208066610995957-47.657908019013121,46.027364473522539-47.657908019013121,27.905819883045297,0,44.395806908411942,22.832172725167766,44.395806908411942,47.657908019013121,0,2.174565070465178-.18100250178486,5.798671184636987-.362512013379273,7.972729245293522ZM149.498940297864465,58.892738374908731c-12.321859386222968,0-21.745143694839498,8.154238756887935-24.463223280467901,18.48304258423741h47.295396005633847c-1.630543545490582-10.509806329135245-9.966291813971111-18.48304258423741-22.832172725165947-18.48304258423741Z"/>
        <path d="M202.230495474757845,107.456672922466169l20.839117166296091-3.986618127550173c3.805615625765313,8.51675077026448,13.590904937952473,13.227885914766375,22.651170223381996,13.227885914766375,9.96629181397293,0,16.127475011988281-4.348623131121713,16.127475011988281-9.785289312188979,0-7.066702716749205-9.96629181397293-9.603779800592747-17.033501540529869-11.415832857677742l-11.778851880867478-3.080591599009495c-11.415832857680471-3.080591599005857-24.64422578225367-9.241774797023027-24.64422578225367-25.550252310795258,0-16.671496536961058,16.127475011987372-27.181302866096303,34.792027107818285-27.181302866096303,20.295602651133777,0,34.973536619414517,13.227885914764556,37.872618706828689,25.006737795632944l-19.389069112780817,3.80510861595576c-2.718586595438865-4.711135144500076-8.154745766695669-11.053320844299378-18.846061607426236-11.053320844299378-7.429214730128479,0-13.227885914764556,3.62410611416999-13.227885914764556,8.879262783644663,0,5.979673686419119,6.160676188206708,7.610724241720163,14.133912443307054,9.784782302376698l9.966798823781573,2.718586595437955c14.67793396828074,3.98611111774153,28.993355923183117,10.509806329137064,28.993355923183117,27.180795856287659,0,18.302547092262103-19.208066610995047,29.355867936561481-37.148101689878786,29.17486543477753-22.107148698408309-.181509511592594-38.23462371039659-12.684878409410885-43.308777878083674-27.724817381262255Z"/>
        <path d="M365.320340710574783,42.402751349543905v11.959854382650519c4.71164215430872-8.335748268480529,18.121037580667689-15.402957995038378,33.342486064111654-14.677933968279831v23.375687240331899c-9.241774797022117-1.630543545492401-19.751581126159181-1.26853854192268-26.637788350932169,5.255156669471035-5.798671184636987,5.436159171258623-6.704697713179485,12.140856884438108-6.704697713179485,19.389069112781726v45.302340446763992h-20.839117166296091V42.402751349543905h20.839117166296091Z"/>
        <path d="M495.612735426870131,95.315309028221236h-68.315515673715709c1.812053057084995,11.597342369272155,12.684878409408157,20.476605152916818,24.644225782251851,20.476605152916818,8.879262783644663,0,16.127982021797834-4.348623131119894,21.745143694839498-11.053320844299378l17.939528069073276,8.335241258670067c-6.704697713179485,10.87282535232589-22.107148698408309,22.107655708219681-40.409188780861768,22.107655708219681-26.275276337553805,0-45.664852460143265-20.657607654702588-45.664852460143265-47.838910520800709,0-26.275276337553805,19.208066610995047-47.657908019013121,46.027364473521629-47.657908019013121,27.905819883046206,0,44.395806908412851,22.832172725167766,44.395806908412851,47.657908019013121,0,2.174565070465178-.181002501783951,5.798671184636987-.362512013378364,7.972729245293522ZM451.39793102024214,58.892738374908731c-12.321859386221149,0-21.745143694838589,8.154238756887935-24.46322328046972,18.48304258423741h47.295396005638395c-1.63054354549331-10.509806329135245-9.96629181397293-18.48304258423741-22.832172725168675-18.48304258423741Z"/>
        <path d="M532.581355644389987,42.402751349543905v8.335748268480529c5.255156669471944-5.255156669474673,13.590904937953383-10.691315840731477,25.731761822390581-10.691315840731477,18.664552095831823,0,34.973029609603145,14.858936470065601,34.973029609603145,34.067003081059738v58.89273837491055h-20.839117166296091v-51.282014133186749c0-13.2283929245732-7.610724241721982-21.382631681459316-19.208066610995957-21.382631681459316-13.77140042992869,0-20.657607654701678,11.778344871057925-20.657607654701678,21.926146196623449v50.738499618022615h-20.839117166297001V42.402751349543905h20.839117166297001Z"/>
        <path d="M611.047714702526719,86.98006776954935c0-27.000300364312352,17.939528069074186-47.295396005634757,40.590698292454363-47.295396005634757,11.597342369273974,0,19.933090637754503,4.530132642714307,25.91276432417726,10.328803827351294V0h20.83911716629882v133.006925233263246h-20.83911716629882v-9.785289312188979h-.906026528544317c-4.167620629334124,5.255156669474673-12.684371399598604,11.597342369273974-25.006737795632944,11.597342369273974-23.375687240329171,0-40.590698292454363-21.382631681459316-40.590698292454363-47.838910520798891ZM677.913689332534886,87.342579782927714c0-16.489987025364826-8.51675077026448-27.72532439106908-22.651170223381996-27.72532439106908-13.952909941521284,0-22.107148698408309,12.141363894244932-22.107148698408309,27.543814879476486,0,16.671496536961058,9.241774797023027,27.724817381260436,22.107148698408309,27.724817381260436,14.315421954905105,0,22.651170223381996-11.778344871057925,22.651170223381996-27.543307869667842Z"/>
        <path d="M805.304466912374664,95.315309028221236h-68.315515673719347c1.812053057088633,11.597342369272155,12.684371399602242,20.476605152916818,24.644732792065952,20.476605152916818,8.878755773836019,0,16.126968002178728-4.348623131119894,21.744636685029946-11.053320844299378l17.94003507888192,8.335241258670067c-6.704697713179485,10.87282535232589-22.107655708219681,22.107655708219681-40.409695790669502,22.107655708219681-26.275276337557443,0-45.664345450335531-20.657607654702588-45.664345450335531-47.838910520800709,0-26.275276337553805,19.207559601185494-47.657908019013121,46.026350453903433-47.657908019013121,27.906833902663493,0,44.396820928031957,22.832172725167766,44.396820928031957,47.657908019013121,0,2.174565070465178-.181509511592594,5.798671184636987-.363019023188826,7.972729245293522ZM761.090169515556227,58.892738374908731c-12.322366396030702,0-21.745650704648142,8.154238756887935-24.463223280467901,18.48304258423741h47.294888995826113c-1.630543545491491-10.509806329135245-9.965784804163377-18.48304258423741-22.831665715358213-18.48304258423741Z"/>
        <path d="M860.93865324534363,61.067303445373909h-42.040239336165541v-18.664552095830004h68.497025185311941v16.852499038745009l-44.939321423575166,54.362605732192606h46.932883992256393v19.389069112781726h-74.114693868163158v-16.670989527152415l45.664345450335531-55.268632260736922Z"/>
        <path d="M973.471508374734185,77.557290470742373v20.838610156486538h-64.509900047949486v-20.838610156486538h64.509900047949486Z"/>
        <path d="M1012.977712685906226,42.402751349543905l18.845554597617593,65.778438589872167,18.845554597613955-65.778438589872167h23.013175226951716l-30.261387455295335,90.604173883719341h-23.738199253708444l-29.899382451723795-90.604173883719341h23.194684738544311Z"/>
        <path d="M1081.475751890835454,87.16107027133512c0-26.637788350933988,19.932583627946769-47.476398507420527,46.932883992257302-47.476398507420527,27.000300364309624,0,46.932883992256393,20.838610156486538,46.932883992256393,47.476398507420527,0,28.0873293946388-21.382631681459316,48.020420032393304-46.932883992256393,48.020420032393304s-46.932883992257302-19.933090637754503-46.932883992257302-48.020420032393304ZM1153.596883190317385,86.617555756170987c0-16.127475011988281-10.691822850537392-27.362305367882072-25.188247307224628-27.362305367882072s-25.188247307225538,11.234830355893791-25.188247307225538,27.362305367882072c0,16.308984523580875,9.966798823781573,28.993355923183117,25.188247307225538,28.993355923183117s25.188247307224628-12.684371399602242,25.188247307224628-28.993355923183117Z"/>
        <path d="M1192.193511904285515,100.38946319590832v-57.986711846364415h20.839117166295182v52.188040661727428c0,13.228392924575019,6.704697713179485,20.295095641324224,18.302040082453459,20.295095641324224,13.590904937951564,0,19.752088135966915-10.691315840731477,19.752088135966915-21.382631681461135v-51.100504621590517h20.83911716629882v90.604173883719341h-20.83911716629882v-9.060265285428613h-.906533538349322c-4.167620629337762,4.89264465609449-12.322366396030702,11.053320844301197-24.643718772444117,11.053320844301197-18.665059105641376,0-33.342993073922116-14.677426958474825-33.342993073922116-34.61051759622751Z"/>
        <path d="M1286.966827446768548,107.456672922466169l20.839117166295182-3.986618127550173c3.804601606148935,8.51675077026448,13.589890918337915,13.227885914766375,22.65015620376289,13.227885914766375,9.966798823781573,0,16.127982021800563-4.348623131121713,16.127982021800563-9.785289312188979,0-7.066702716749205-9.966798823781573-9.603779800592747-17.033501540532598-11.415832857677742l-11.778851880866569-3.080591599009495c-11.415832857678652-3.080591599005857-24.643718772444117-9.241774797023027-24.643718772444117-25.550252310795258,0-16.671496536961058,16.126968002179638-27.181302866096303,34.792027107818285-27.181302866096303,20.294588631513761,0,34.97252259979814,13.227885914764556,37.87261870682778,25.006737795632944l-19.390083132399013,3.80510861595576c-2.717572575821578-4.711135144500076-8.153731747076563-11.053320844299378-18.845554597616683-11.053320844299378-7.429721739937122,0-13.227885914763647,3.62410611416999-13.227885914763647,8.879262783644663,0,5.979673686419119,6.161183198015351,7.610724241720163,14.134419453116607,9.784782302376698l9.965784804163377,2.718586595437955c14.67793396828074,3.98611111774153,28.99386293299267,10.509806329137064,28.99386293299267,27.180795856287659,0,18.302547092262103-19.208573620807329,29.355867936561481-37.147594680072871,29.17486543477753-22.107655708215134-.181509511592594-38.235637730011149-12.684878409410885-43.308777878081855-27.724817381262255Z"/>
        <path d="M0,256.112455908094489c0-26.99979335450189,17.939528069074186-47.294888995824294,40.590698292456182-47.294888995824294,11.597342369273065,0,19.933090637753594,4.530132642710669,25.912764324175441,10.328803827349475v-50.01347559126225h20.839117166296091v133.006925233261427h-20.839117166296091v-9.785289312188979h-.906026528543407c-4.167620629335033,5.254649659662391-12.684371399601332,11.597342369273974-25.006737795632034,11.597342369273974-23.37568724033099,0-40.590698292456182-21.382631681459316-40.590698292456182-47.839417530609353ZM66.865974630010896,256.475474931283316c0-16.489987025364826-8.516750770266299-27.725324391070899-22.651170223383815-27.725324391070899-13.952909941522194,0-22.107148698408309,12.140856884438108-22.107148698408309,27.543814879474667,0,16.671496536961058,9.241267787213474,27.725324391070899,22.107148698408309,27.725324391070899,14.315421954903286,0,22.651170223383815-11.778851880866569,22.651170223383815-27.543814879474667Z"/>
        <path d="M194.25573819022884,264.448711186383662h-68.315515673715709c1.812053057085905,11.597342369273974,12.684878409409066,20.476098143109994,24.644225782251851,20.476098143109994,8.879262783644663,0,16.127982021797834-4.349130140930356,21.745143694839498-11.053827854109841l17.939528069073276,8.336255278289173c-6.704697713179485,10.872318342517246-22.1071486984074,22.106641688598756-40.409188780860859,22.106641688598756-26.275276337554715,0-45.664852460144175-20.65760765469895-45.664852460144175-47.838403510988428,0-26.275276337553805,19.208066610995957-47.657908019013121,46.027364473523448-47.657908019013121,27.905819883045297,0,44.395806908411942,22.832172725164128,44.395806908411942,47.657908019013121,0,2.174058060656535-.18100250178486,5.798164174830163-.362512013379273,7.973236255100346ZM150.040933783601758,228.025633523264332c-12.321859386222059,0-21.745143694839498,8.154238756887935-24.463223280466991,18.48304258423741h47.295396005634757c-1.63054354549331-10.509806329137973-9.96629181397293-18.48304258423741-22.832172725167766-18.48304258423741Z"/>
        <path d="M202.772488960494229,276.58956807082177l20.839117166297001-3.987125137358817c3.805615625765313,8.51675077026448,13.59039792814383,13.228899934383662,22.651170223382906,13.228899934383662,9.966291813971111,0,16.127475011986462-4.349130140930356,16.127475011986462-9.785289312188979,0-7.067716736368311-9.966291813971111-9.604793820210034-17.033501540529869-11.416846877295029l-11.778851880867478-3.079577579392208c-11.415832857679561-3.080591599005857-24.64422578225367-9.241774797021208-24.64422578225367-25.55075932060663,0-16.671496536960149,16.127475011988281-27.181302866093574,34.792027107820104-27.181302866093574,20.295602651131958,0,34.973536619411789,13.227885914762737,37.872618706825961,25.006737795629306l-19.389069112779907,3.805108615957579c-2.718586595437955-4.711135144498257-8.154745766695669-11.053320844301197-18.846061607424417-11.053320844301197-7.429214730129388,0-13.227885914766375,3.624106114173628-13.227885914766375,8.878755773836019,0,5.979673686422757,6.160676188207617,7.611231251532445,14.133912443308873,9.785289312188979l9.966798823780664,2.718586595437955c14.67793396828074,3.98611111774153,28.993355923183117,10.510313338945707,28.993355923183117,27.180795856289478,0,18.302040082449821-19.208066610995957,29.355867936559662-37.148101689877876,29.17435842496343-22.107148698410128-.180495491975307-38.2346237103975-12.684371399598604-43.308777878085493-27.724310371449974Z"/>
        <path d="M336.143954246370413,230.018689082136916v-18.483042584241048h19.38957612259037v-13.952909941523103c0-15.402957995036559,9.96629181397293-30.080891963320028,29.174358424967977-30.080891963320028,10.147801325566434,0,16.671496536960149,2.355567572252767,18.483549594046053,2.899589097225544v18.302040082453459c-1.449541043706631-.362512013380183-5.980180696230491-1.631050555300135-12.140856884437198-1.631050555300135-8.517257780074033,0-14.67793396828074,5.798671184634259-14.67793396828074,14.134419453114788v10.328803827349475h28.44933439821034v18.483042584241048h-28.44933439821034v72.121131299481931h-20.839117166296091v-72.121131299481931h-19.38957612259037Z"/>
        <path d="M408.99163060203864,256.293965419687083c0-26.637281341121707,19.933090637753594-47.476398507416889,46.933391002065036-47.476398507416889,26.999793354502799,0,46.932883992256393,20.839117166295182,46.932883992256393,47.476398507416889,0,28.087329394642438-21.382631681460225,48.01991302258466-46.932883992256393,48.01991302258466-25.550759320604811,0-46.933391002065036-19.932583627942222-46.933391002065036-48.01991302258466ZM481.11276190152148,255.750450904526588c0-16.127982021796925-10.691315840730567-27.362305367882072-25.187740297417804-27.362305367882072-14.49693146649588,0-25.188247307226447,11.234323346085148-25.188247307226447,27.362305367882072,0,16.308477513768594,9.96629181397293,28.993862932989032,25.188247307226447,28.993862932989032,15.221448483444874,0,25.187740297417804-12.685385419220438,25.187740297417804-28.993862932989032Z"/>
        <path d="M540.550028811211632,211.535646497895868v11.959854382654157c4.71164215430781-8.335748268480529,18.12103758066678-15.402957995040197,33.342486064111654-14.677933968279831v23.375687240328261c-9.241774797023936-1.630543545492401-19.751581126159181-1.268538541920861-26.637788350932169,5.255156669474673-5.798671184636078,5.436159171254985-6.704697713179485,12.140856884438108-6.704697713179485,19.389069112778088v45.30234044676763h-20.839117166297001v-90.604173883722979h20.839117166297001Z"/>
        <path d="M609.229577527734364,211.535646497895868v7.791726743507752c5.255156669471035-5.07364715787844,13.228392924574109-10.147294315755971,24.825735293845355-10.147294315755971,11.053827854109841,0,21.926146196624359,5.798671184637897,28.08732939463971,14.85893647006651,5.798671184635168-7.610724241723801,17.033501540532598-14.85893647006651,30.623899468675518-14.85893647006651,17.396520563721424,0,33.88650758908625,14.315421954902376,33.88650758908625,33.522981556087871v59.436759899883327h-20.839117166295182v-51.282014133186749c0-13.228392924575019-7.248212228343618-21.382631681462954-18.302040082453459-21.382631681462954-13.047390422791068,0-19.570578624377958,11.778851880870207-19.570578624377958,21.926146196627087v50.738499618022615h-20.839117166294272v-51.282014133186749c0-13.228392924575019-7.248212228343618-21.382631681462954-18.30204008245164-21.382631681462954-13.046883412980605,0-19.57057862437432,11.778851880870207-19.57057862437432,21.926146196627087v50.738499618022615h-20.839117166297001v-90.604173883722979h20.839117166297001Z"/>
        <path d="M745.321150438474433,276.046053555657636c0-18.121544590474514,14.676919948663453-26.456785849146399,31.529925997220744-29.537377448155894,7.066702716747386-1.268538541920861,23.738199253708444-3.805615625766222,28.812353421395528-4.529625632905663,0-7.792233753317305-7.248212228343618-14.134926462924341-17.396520563717786-14.134926462924341-8.878755773836019,0-15.03993897185137,4.53063965252386-17.39550654409959,9.785289312185341l-21.564141193056457-2.174565070465178c2.718586595437955-12.321859386222059,16.671496536961058-26.637281341121707,38.959647737156047-26.637281341121707,24.46322328046881,0,37.87261870682778,14.677933968279831,37.87261870682778,34.610517596222053v58.711735873126599h-20.476098143109994v-10.690808830921014h-1.268538541920861c-5.799178194443812,6.704697713179485-15.040952991468657,12.864866891573911-27.181809875906765,12.864866891573911-18.66404508602136,0-31.891931000788645-11.415832857677742-31.891931000788645-28.267824886614108ZM804.575386807145151,273.870981475383815c1.268538541920861-2.717572575820668,1.268538541920861-5.254649659662391,1.268538541920861-7.973236255100346v-7.791726743506842c-5.073140148069797.725024026755818-11.597342369273974,1.99356256867668-19.570578624371592,3.443610622193773-8.516750770267208,1.630543545492401-18.302040082456188,4.348116121313069-18.302040082456188,13.409395426358969,0,7.066702716751024,6.524202221205087,10.872318342517246,15.040952991472295,10.872318342517246,9.060265285428613,0,18.66404508602136-5.79917819444745,21.563127173434623-11.960361392462801Z"/>
        <path d="M854.592918476880186,277.676597101150037v-47.657908019013121h-16.489987025368464v-18.483042584241048h16.489987025368464v-23.738199253708444h20.839117166296091v23.738199253708444h26.818790852721577v18.483042584241048h-26.818790852721577v40.771700794241042c0,8.336255278285535,3.624106114172719,13.772414449544158,12.321352376412506,13.772414449544158,5.074154167687084,0,8.516750770268118-.906533538349322,11.960361392462801-1.993562568677589v18.120530570857227c-2.899082087414172,1.268538541924499-7.973236255103984,3.443610622194683-18.483549594046053,3.443610622194683-15.221448483447602,0-26.637281341125345-11.597342369270336-26.637281341125345-26.456785849146399Z"/>
        <path d="M1002.460301209635873,264.448711186383662h-68.315515673715709c1.812053057084995,11.597342369273974,12.684371399598604,20.476098143109994,24.644732792061404,20.476098143109994,8.878755773836019,0,16.126968002179638-4.349130140930356,21.744636685030855-11.053827854109841l17.94003507888192,8.336255278289173c-6.704697713179485,10.872318342517246-22.107655708216043,22.106641688598756-40.409695790669502,22.106641688598756-26.275276337557443,0-45.664345450335531-20.65760765469895-45.664345450335531-47.838403510988428,0-26.275276337553805,19.207559601185494-47.657908019013121,46.026350453903433-47.657908019013121,27.906833902663493,0,44.396820928031957,22.832172725164128,44.396820928031957,47.657908019013121,0,2.174058060656535-.181509511596232,5.798164174830163-.363019023188826,7.973236255100346ZM958.246003812817435,228.025633523264332c-12.322366396030702,0-21.745650704648142,8.154238756887935-24.46322328046881,18.48304258423741h47.294888995827932c-1.630543545492401-10.509806329137973-9.965784804164286-18.48304258423741-22.831665715359122-18.48304258423741Z"/>
        <path d="M1017.683777732318049,269.521851334453459v-57.98620483655759h20.839117166295182v52.188040661731065c0,13.227885914766375,6.704697713179485,20.295602651131048,18.302040082453459,20.295602651131048,13.590904937951564,0,19.752088135966915-10.691822850539211,19.752088135966915-21.382631681459316v-51.101011631402798h20.839117166295182v90.604173883722979h-20.839117166295182v-9.060265285428613h-.906533538349322c-4.167620629337762,4.892644656090852-12.32236639603434,11.053827854106203-24.643718772444117,11.053827854106203-18.665059105642285,0-33.342993073922116-14.677933968279831-33.342993073922116-34.611531615842978Z"/>
        <path d="M1141.812961211361653,211.535646497895868v11.959854382654157c4.711135144498257-8.335748268480529,18.120530570860865-15.402957995040197,33.341979054304829-14.677933968279831v23.375687240328261c-9.241774797024846-1.630543545492401-19.752088135970553-1.268538541920861-26.637281341125345,5.255156669474673-5.799178194444721,5.436159171254985-6.704697713179485,12.140856884438108-6.704697713179485,19.389069112778088v45.30234044676763h-20.83911716629882v-90.604173883722979h20.83911716629882Z"/>
        <path d="M1187.841339704502388,252.12634479035296c0-8.335241258671886,6.704697713180394-14.85893647006742,15.221448483444874-14.85893647006742s15.221448483443965,6.523695211395534,15.221448483443965,14.85893647006742c0,8.51675077026448-6.704697713179485,15.221448483447602-15.221448483443965,15.221448483447602s-15.221448483444874-6.704697713183123-15.221448483444874-15.221448483447602Z"/>
        <path d="M1271.742336904469084,211.535646497895868v11.959854382654157c4.711135144501895-8.335748268480529,18.120530570860865-15.402957995040197,33.341979054304829-14.677933968279831v23.375687240328261c-9.241774797024846-1.630543545492401-19.752088135969643-1.268538541920861-26.637281341125345,5.255156669474673-5.799178194443812,5.436159171254985-6.704697713179485,12.140856884438108-6.704697713179485,19.389069112778088v45.30234044676763h-20.839117166295182v-90.604173883722979h20.839117166295182Z"/>
        <path d="M1316.864181859257769,184.535346133585335c0-7.610724241723801,5.979673686419119-13.59039792814292,13.590904937955202-13.59039792814292,7.61021723191152,0,13.590904937951564,5.979673686419119,13.590904937951564,13.59039792814292s-5.980687706040044,13.590904937951564-13.590904937951564,13.590904937951564c-7.611231251536083,0-13.590904937955202-5.980180696227762-13.590904937955202-13.590904937951564ZM1340.96540013615504,211.535646497895868v90.604173883722979h-20.839117166295182v-90.604173883722979h20.839117166295182Z"/>
        <path d="M1359.992464245365227,256.65698444287591c0-27.000300364310533,21.201122169866721-47.839417530605715,47.294888995827932-47.839417530605715,20.114093139538454,0,34.430022104246746,12.503368897814653,40.591205302265735,24.463223280465172l-17.578030075314018,8.335241258671886c-4.529625632905663-7.06720972655603-11.596328349656687-13.227885914762737-23.013175226951716-13.227885914762737-15.402957995040197,0-25.912257314368617,11.778851880866569-25.912257314368617,27.724310371449974,0,14.677933968283469,10.50929931932842,28.63185792942113,26.093766825961211,28.63185792942113,11.597342369273974,0,19.389069112781726-6.161183198012623,24.644732792061404-14.497438476301795l17.757511547672038,8.51675077026448c-7.972222235483059,14.497438476304524-23.556689742114941,25.550252310793439-43.308777878081855,25.550252310793439-25.912257314369526,0-46.569864969072114-20.294588631513761-46.569864969072114-47.656893999395834Z"/>
        <path d="M1548.086005217963248,264.448711186383662h-68.315515673720256c1.812053057088633,11.597342369273974,12.684371399602242,20.476098143109994,24.644732792065042,20.476098143109994,8.878755773836019,0,16.126968002176-4.349130140930356,21.744636685030855-11.053827854109841l17.94003507888192,8.336255278289173c-6.704697713178575,10.872318342517246-22.107655708219681,22.106641688598756-40.409695790670412,22.106641688598756-26.275276337556534,0-45.664345450334622-20.65760765469895-45.664345450334622-47.838403510988428,0-26.275276337553805,19.207559601185494-47.657908019013121,46.026350453903433-47.657908019013121,27.906833902663493,0,44.396820928028319,22.832172725164128,44.396820928028319,47.657908019013121,0,2.174058060656535-.181509511592594,5.798164174830163-.363019023184279,7.973236255100346ZM1503.8717078211439,228.025633523264332c-12.322366396030702,0-21.745650704648142,8.154238756887935-24.46322328046881,18.48304258423741h47.294888995827932c-1.630543545492401-10.509806329137973-9.965784804164286-18.48304258423741-22.831665715359122-18.48304258423741Z"/>
        <path d="M1556.603770007847743,276.58956807082177l20.839117166295182-3.987125137358817c3.804601606145297,8.51675077026448,13.589890918334277,13.228899934383662,22.65015620376289,13.228899934383662,9.966798823782483,0,16.127982021796925-4.349130140930356,16.127982021796925-9.785289312188979,0-7.067716736368311-9.966798823781573-9.604793820210034-17.033501540532598-11.416846877295029l-11.778851880866569-3.079577579392208c-11.415832857677742-3.080591599005857-24.643718772443208-9.241774797021208-24.643718772443208-25.55075932060663,0-16.671496536960149,16.126968002178728-27.181302866093574,34.792027107821923-27.181302866093574,20.294588631510123,0,34.972522599790864,13.227885914762737,37.872618706830508,25.006737795629306l-19.390083132399923,3.805108615957579c-2.717572575819759-4.711135144498257-8.15373174708202-11.053320844301197-18.845554597620321-11.053320844301197-7.429721739939851,0-13.227885914766375,3.624106114173628-13.227885914766375,8.878755773836019,0,5.979673686422757,6.161183198015351,7.611231251532445,14.134419453119335,9.785289312188979l9.965784804160648,2.718586595437955c14.677933968287107,3.98611111774153,28.993862932996308,10.510313338945707,28.993862932996308,27.180795856289478,0,18.302040082449821-19.208573620810057,29.355867936559662-37.147594680071961,29.17435842496343-22.107655708219681-.180495491975307-38.235637730016606-12.684371399598604-43.308777878082765-27.724310371449974Z"/>
        <path d="M0,425.244844046641447c0-26.999286344693246,17.939528069074186-47.294888995827932,40.590698292456182-47.294888995827932,11.597342369273065,0,19.933090637753594,4.529625632905663,25.912764324175441,10.328803827353113v-50.013475591265887h20.839117166296091v133.006925233261427h-20.839117166296091v-9.785289312185341h-.906026528543407c-4.167620629335033,5.254649659662391-12.684371399601332,11.597342369270336-25.006737795632034,11.597342369270336-23.37568724033099,0-40.590698292456182-21.382631681459316-40.590698292456182-47.839417530605715ZM66.865974630010896,425.607863069826635c0-16.489987025364826-8.516750770266299-27.725324391067261-22.651170223383815-27.725324391067261-13.952909941522194,0-22.107148698408309,12.14085688443447-22.107148698408309,27.543814879474667,0,16.671496536961058,9.241267787213474,27.725324391070899,22.107148698408309,27.725324391070899,14.315421954903286,0,22.651170223383815-11.778851880870207,22.651170223383815-27.543814879478305Z"/>
        <path d="M146.054315656051585,355.117275315840743c0,18.302040082449821-26.275276337554715,37.329104191660008-36.422570653312505,45.12083093516776h-2.356074582058682v-11.777837861249282c6.161183198016261-5.255663679279678,14.859443479875154-12.503875907623296,21.201629179676274-21.564141193055548h-1.449541043706631c-7.248719238153171,0-13.228392924574109-5.798164174826525-13.228392924574109-13.40939542635806,0-9.603779800593657,8.154238756886116-15.03993897185228,16.127475011986462-15.03993897185228,8.879262783645572,0,16.127475011989191,6.88519320515843,16.127475011989191,16.670482517347409Z"/>
        <path d="M141.887202036525196,445.178441694200956c0-18.121544590474514,14.677933968279831-26.456785849146399,31.530433007026659-29.537377448155894,7.067209726557849-1.268538541920861,23.738199253709354-3.805615625762584,28.811846411587794-4.529625632902025,0-7.792740763128677-7.248212228343618-14.134419453118426-17.396013553910052-14.134419453118426-8.879262783643753,0-15.039938971850461,4.529625632904754-17.396013553909143,9.785289312184432l-21.563634183245995-2.175072080270184c2.718079585629312-12.322366396030702,16.670989527152415-26.637281341125345,38.959647737155137-26.637281341125345,24.463223280467901,0,37.87261870682687,14.677933968279831,37.87261870682687,34.610517596225691v58.711735873122961h-20.476605152916818v-10.690808830921014h-1.268538541921771c-5.798164174826525,6.704697713179485-15.039938971849551,12.864866891578458-27.180795856287659,12.864866891578458-18.664552095832732,0-31.892945020405023-11.415832857678652-31.892945020405023-28.267824886618655ZM201.142452424810472,443.003369613927134c1.26853854192359-2.71757257581703,1.26853854192359-5.254649659662391,1.26853854192359-7.973236255100346v-7.791726743507752c-5.074154167688903.725024026756728-11.597342369273974,1.993562568681227-19.57057862437523,3.443610622195592-8.51675077026448,1.630543545491491-18.30204008245255,4.34811612131216-18.30204008245255,13.409395426358969,0,7.066702716751024,6.523188201585981,10.872318342516337,15.040445981660923,10.872318342516337,9.060265285428613,0,18.66404508602227-5.799178194443812,21.563634183243266-11.960361392462801Z"/>
        <path d="M265.292882518238002,380.667527626634183v7.973236255100346c5.980180696230491-5.798164174826525,14.496931466494971-10.690808830921014,26.094273835768945-10.690808830921014,23.013175226951716,0,40.409188780860859,20.476098143109994,40.409188780860859,47.294888995827932,0,26.456785849146399-17.577016055694912,47.839417530605715-40.228186279076908,47.839417530605715-12.684371399600423,0-21.201629179673546-5.074154167687084-26.275276337552896-11.235337365698797v42.403258359347092h-20.839117166296091v-123.584654944261274h20.839117166296091ZM309.689196436459497,425.426353558234041c0-15.402957995040197-8.154745766695669-27.543814879474667-22.107655708218772-27.543814879474667-14.134419453117516,0-22.651170223381996,11.235337365702435-22.651170223381996,27.725324391067261,0,15.764962998608098,8.33574826847871,27.543814879478305,22.651170223381996,27.543814879478305,12.865880911194836,0,22.107655708218772-11.053827854109841,22.107655708218772-27.725324391070899Z"/>
        <path d="M370.756499881831587,380.667527626634183v7.973236255100346c5.9801806962314-5.798164174826525,14.49693146649588-10.690808830921014,26.094273835769854-10.690808830921014,23.013175226950807,0,40.409188780861768,20.476098143109994,40.409188780861768,47.294888995827932,0,26.456785849146399-17.577016055694912,47.839417530605715-40.228186279076908,47.839417530605715-12.684371399600423,0-21.201122169865812-5.074154167687084-26.275276337554715-11.235337365698797v42.403258359347092h-20.839117166296091v-123.584654944261274h20.839117166296091ZM415.152813800053991,425.426353558234041c0-15.402957995040197-8.154745766694759-27.543814879474667-22.107655708218772-27.543814879474667-14.134419453116607,0-22.651170223381996,11.235337365702435-22.651170223381996,27.725324391067261,0,15.764962998608098,8.335748268480529,27.543814879478305,22.651170223381996,27.543814879478305,12.865880911195745,0,22.107655708218772-11.053827854109841,22.107655708218772-27.725324391070899Z"/>
        <path d="M476.220117245426991,380.667527626634183v11.960361392459163c4.71164215430872-8.335241258668248,18.121037580668599-15.402957995036559,33.342486064112563-14.677933968279831v23.376194250140543c-9.241774797023027-1.631557565109688-19.75158112616009-1.268538541920861-26.637788350933079,5.254649659666029-5.798671184635168,5.436159171254985-6.704697713179485,12.14085688443447-6.704697713179485,19.389069112778088v45.302340446763992h-20.839117166296091v-90.604680893527984h20.839117166296091Z"/>
        <path d="M606.512511961722339,433.581099324930619h-68.315515673717528c1.812053057086814,11.597342369270336,12.684878409410885,20.476098143106356,24.64422578225367,20.476098143106356,8.879262783644663,0,16.127982021796925-4.349130140926718,21.745143694839498-11.053827854109841l17.939528069074186,8.336255278292811c-6.704697713180394,10.872318342513609-22.107148698410128,22.106641688599666-40.409188780862678,22.106641688599666-26.275276337552896,0-45.664852460143265-20.657607654703497-45.664852460143265-47.838403510992975,0-26.275276337550167,19.208066610995957-47.657908019013121,46.027364473522539-47.657908019013121,27.905819883046206,0,44.395806908412851,22.831665715359122,44.395806908412851,47.657908019013121,0,2.174058060656535-.18100250178486,5.798164174826525-.362512013379273,7.973236255103984ZM562.297707555095258,397.157514651999008c-12.321859386222968,0-21.745143694839498,8.154745766696578-24.46322328046881,18.483549594046053h47.295396005635666c-1.630543545491491-10.510313338945707-9.96629181397202-18.483549594046053-22.832172725166856-18.483549594046053Z"/>
        <path d="M643.481132179242195,380.667527626634183v8.336255278289173c5.255156669473763-5.255663679278769,13.590904937950654-10.691822850541939,25.731761822388762-10.691822850541939,18.664552095833642,0,34.973536619418155,14.859443479876063,34.973536619418155,34.067003081065195v58.893245384715556h-20.83911716629882v-51.282014133186749c0-13.227885914766375-7.611231251532445-21.382631681459316-19.208573620806419-21.382631681459316-13.771400429926871,0-20.657607654701678,11.778851880866569-20.657607654701678,21.926146196623449v50.738499618022615h-20.839117166296091v-90.604680893527984h20.839117166296091Z"/>
        <path d="M733.183335612892733,446.808985239696995v-47.657908019016759h-16.489987025368464v-18.483549594046053h16.489987025368464v-23.738199253712082h20.839117166295182v23.738199253712082h26.818790852717939v18.483549594046053h-26.818790852717939v40.771700794241042c0,8.336255278289173,3.624106114173628,13.772414449544158,12.321352376412506,13.772414449544158,5.074154167688903,0,8.516750770269027-.906533538349322,11.96036139246371-1.993562568677589v18.120530570857227c-2.8990820874169,1.268538541924499-7.973236255103984,3.443610622198321-18.483549594049691,3.443610622198321-15.221448483443965,0-26.637281341121707-11.597342369273974-26.637281341121707-26.456785849146399Z"/>
        <path d="M794.976677104642476,353.668241281940936c0-7.611231251532445,5.979673686419119-13.590904937955202,13.590904937951564-13.590904937955202,7.61021723191152,0,13.590904937951564,5.979673686422757,13.590904937951564,13.590904937955202,0,7.61021723191152-5.980687706040044,13.589890918334277-13.590904937951564,13.589890918334277-7.611231251532445,0-13.590904937951564-5.979673686422757-13.590904937951564-13.589890918334277ZM819.077895381539747,380.667527626634183v90.604680893527984h-20.839117166295182v-90.604680893527984h20.839117166295182Z"/>
        <path d="M853.869922489358032,421.258732928899917c0-8.335241258671886,6.704697713179485-14.859443479876063,15.221448483443965-14.859443479876063,8.516750770268118,0,15.221448483443965,6.524202221204177,15.221448483443965,14.859443479876063,0,8.51675077026448-6.704697713175847,15.221448483443965-15.221448483443965,15.221448483443965-8.51675077026448,0-15.221448483443965-6.704697713179485-15.221448483443965-15.221448483443965Z"/>
        <path d="M1000.287257168596625,433.581099324930619h-68.315515673715709c1.812053057084995,11.597342369270336,12.684371399602242,20.476098143106356,24.644732792065042,20.476098143106356,8.878755773832381,0,16.126968002176-4.349130140926718,21.744636685027217-11.053827854109841l17.94003507888192,8.336255278292811c-6.704697713179485,10.872318342513609-22.107655708216043,22.106641688599666-40.409695790669502,22.106641688599666-26.275276337553805,0-45.664345450335531-20.657607654703497-45.664345450335531-47.838403510992975,0-26.275276337550167,19.207559601185494-47.657908019013121,46.026350453907071-47.657908019013121,27.906833902663493,0,44.396820928028319,22.831665715359122,44.396820928028319,47.657908019013121,0,2.174058060656535-.181509511592594,5.798164174826525-.363019023188826,7.973236255103984ZM956.072959771778187,397.157514651999008c-12.322366396030702,0-21.745650704648142,8.154745766696578-24.463223280465172,18.483549594046053h47.294888995824294c-1.630543545492401-10.510313338945707-9.966798823781573-18.483549594046053-22.831665715359122-18.483549594046053Z"/>
        <path d="M1008.80502195848203,445.721956209368727l20.839117166295182-3.987125137362455c3.804601606148935,8.51675077026448,13.589890918334277,13.228899934383662,22.65015620376289,13.228899934383662,9.966798823781573,0,16.127982021796925-4.349130140930356,16.127982021796925-9.785289312188979,0-7.067716736364673-9.966798823777935-9.604793820210034-17.03350154052896-11.416846877295029l-11.778851880866569-3.079577579391298c-11.415832857677742-3.080591599006766-24.643718772443208-9.241774797022117-24.643718772443208-25.551266330415274,0-16.670482517340133,16.126968002178728-27.18079585628584,34.792027107817376-27.18079585628584,20.294588631517399,0,34.97252259979723,13.227885914766375,37.87261870682778,25.006737795632944l-19.390083132399013,3.805615625762584c-2.717572575820668-4.712149164115544-8.153731747075653-11.053827854106203-18.845554597617593-11.053827854106203-7.429721739936213,0-13.227885914762737,3.624106114173628-13.227885914762737,8.878755773836019,0,5.979673686419119,6.161183198011713,7.611231251532445,14.134419453115697,9.785289312185341l9.965784804164286,2.718586595437955c14.677933968279831,3.986111117745168,28.99386293299176,10.510313338945707,28.99386293299176,27.180795856289478,0,18.302040082453459-19.208573620802781,29.355867936559662-37.147594680071052,29.174358424967977-22.107655708219681-.180495491976217-38.235637730016606-12.684371399603151-43.308777878082765-27.724310371450883Z"/>
      </g>
      <rect x="1549.103040273480929" y="416.55540963829435" width="129.361638471698825" height="46.570443932484523" transform="translate(2053.624491113866952 -1173.94322790479373) rotate(90)" style="fill: #1754ff;"/>
      <rect x="1134.898959419046605" y="416.555409638295259" width="129.361638471698825" height="46.570443932482704" transform="translate(1639.420410259432629 -759.739147050359406) rotate(90)" style="fill: #1754ff;"/>
      <circle cx="1453.513291499768457" cy="439.733025493567766" r="67.017644600783115" style="fill: #3df069;"/>
    </g>
  </g>
</svg>