<?xml version="1.0" encoding="UTF-8"?>
<svg id="Calque_2" xmlns="http://www.w3.org/2000/svg" version="1.1" viewBox="0 0 791.1 791.1">
  <!-- Generator: Adobe Illustrator 30.1.0, SVG Export Plug-In . SVG Version: 2.1.1 Build 136)  -->
  <defs>
    <style>
      .st0 {
        fill: #fff;
      }

      .st1 {
        fill: #3df069;
      }
    </style>
  </defs>
  <g id="Calque_1-2">
    <g>
      <circle class="st1" cx="395.5" cy="395.5" r="395.5"/>
      <g>
        <path class="st0" d="M240.6,250.3c35.7,0,54.4,25,54.4,52.8s-21,54.3-55.5,54.3h-32.8v-107.1h33.9ZM275.1,302.9c0-16.5-8.5-30.6-25.6-33.7-3.6-.6-7.6-.9-12.1-.9h-11.2v70.9h10.2c24.1,0,38.8-9.7,38.8-36.3Z"/>
        <path class="st0" d="M306.7,335.8c0-15,12.1-21.9,26.1-24.4,5.9-1,19.6-3.2,23.8-3.8,0-6.5-6-11.7-14.4-11.7s-12.4,3.7-14.4,8.1l-17.8-1.8c2.2-10.2,13.8-22,32.2-22s31.3,12.1,31.3,28.6v48.6h-16.9v-8.8h-1c-4.8,5.5-12.4,10.6-22.5,10.6-15.4,0-26.4-9.4-26.4-23.4ZM355.8,334c1-2.2,1-4.3,1-6.6v-6.4c-4.2.6-9.6,1.6-16.2,2.8-7,1.3-15.1,3.6-15.1,11.1s5.4,9,12.4,9,15.4-4.8,17.8-9.9Z"/>
        <path class="st0" d="M397.2,337.1v-39.4h-13.6v-15.3h13.6v-19.6h17.2v19.6h22.2v15.3h-22.2v33.7c0,6.9,3,11.4,10.2,11.4s7-.8,9.9-1.6v15c-2.4,1-6.6,2.9-15.3,2.9-12.6,0-22-9.6-22-21.9Z"/>
        <path class="st0" d="M519.6,326.2h-56.5c1.5,9.6,10.5,16.9,20.4,16.9s13.3-3.6,18-9.2l14.8,6.9c-5.5,9-18.3,18.3-33.4,18.3-21.8,0-37.8-17.1-37.8-39.6s15.9-39.4,38.1-39.4,36.7,18.9,36.7,39.4-.1,4.8-.3,6.6ZM483,296c-10.2,0-18,6.8-20.2,15.3h39.1c-1.3-8.7-8.2-15.3-18.9-15.3Z"/>
        <path class="st0" d="M526.6,336.2l17.2-3.3c3.1,7,11.2,11,18.7,11s13.3-3.6,13.3-8.1-8.2-8-14.1-9.5l-9.8-2.5c-9.4-2.5-20.4-7.6-20.4-21.1s13.3-22.5,28.8-22.5,28.9,11,31.3,20.7l-16,3.2c-2.2-3.9-6.8-9.2-15.6-9.2s-10.9,3-10.9,7.3,5.1,6.3,11.7,8.1l8.2,2.2c12.1,3.3,24,8.7,24,22.5s-15.9,24.3-30.7,24.1c-18.3-.1-31.6-10.5-35.8-22.9Z"/>
        <path class="st0" d="M130.2,515.8c0-15,12.1-21.9,26.1-24.4,5.9-1,19.6-3.2,23.8-3.8,0-6.5-6-11.7-14.4-11.7s-12.4,3.7-14.4,8.1l-17.8-1.8c2.2-10.2,13.8-22,32.2-22s31.3,12.1,31.3,28.6v48.6h-16.9v-8.8h-1c-4.8,5.5-12.4,10.6-22.5,10.6-15.4,0-26.4-9.4-26.4-23.4ZM158.4,424l17.4,25.5h-16.5l-22.6-25.5h21.7ZM179.3,514c1-2.2,1-4.3,1-6.6v-6.4c-4.2.6-9.6,1.6-16.2,2.8-7,1.3-15.1,3.6-15.1,11.1s5.4,9,12.4,9,15.4-4.8,17.8-9.9Z"/>
        <path class="st0" d="M264.3,462.4l15.6,54.4,15.6-54.4h19l-25,75h-19.6l-24.7-75h19.2Z"/>
        <path class="st0" d="M395.6,506.2h-56.5c1.5,9.6,10.5,16.9,20.4,16.9s13.3-3.6,18-9.2l14.8,6.9c-5.5,9-18.3,18.3-33.4,18.3-21.7,0-37.8-17.1-37.8-39.6s15.9-39.4,38.1-39.4,36.7,18.9,36.7,39.4-.1,4.8-.3,6.6ZM359,476c-10.2,0-18,6.8-20.2,15.3h39.1c-1.3-8.7-8.2-15.3-18.9-15.3Z"/>
        <path class="st0" d="M426.2,462.4v6.9c4.3-4.3,11.2-8.8,21.3-8.8,15.5,0,28.9,12.3,28.9,28.2v48.7h-17.2v-42.4c0-10.9-6.3-17.7-15.9-17.7s-17.1,9.8-17.1,18.1v42h-17.2v-75h17.2Z"/>
        <path class="st0" d="M493.5,440c0-6.3,5-11.2,11.2-11.2s11.2,5,11.2,11.2-5,11.2-11.2,11.2-11.2-4.9-11.2-11.2ZM513.5,462.4v75h-17.2v-75h17.2Z"/>
        <path class="st0" d="M552,462.4v9.9c3.9-6.9,15-12.7,27.6-12.1v19.3c-7.6-1.4-16.3-1-22,4.3-4.8,4.5-5.5,10-5.5,16v37.5h-17.2v-75h17.2Z"/>
        <path class="st0" d="M626.9,526c0-6.9,5.5-12.3,12.6-12.3s12.6,5.4,12.6,12.3-5.5,12.6-12.6,12.6-12.6-5.5-12.6-12.6ZM630,430.3h19v18l-4.5,54.4h-10l-4.5-54.4v-18Z"/>
      </g>
    </g>
  </g>
</svg>