<?xml version="1.0" encoding="UTF-8"?>
<svg id="Calque_2" data-name="Calque 2" xmlns="http://www.w3.org/2000/svg" viewBox="0 0 791.06929845610739 791.069298456105571">
  <g id="Calque_1-2" data-name="Calque 1">
    <g>
      <circle cx="395.534649228053013" cy="395.534649228054377" r="395.534649228052103" style="fill: #3df069;"/>
      <g>
        <path d="M345.081705293187042,342.607578937325343v-20.775390625l60.65869140625-87.185546875h23.00244140625v86.2578125h19.1064453125v21.703125h-19.1064453125v22.4453125h-23.00244140625v-22.4453125h-60.65869140625ZM405.740396699437042,271.004063312325343l-33.76123046875,49.900390625h33.76123046875v-49.900390625Z" style="fill: #fff;"/>
        <path d="M203.923990449437042,405.732578937325343c44.1494140625,0,67.3369140625,30.978515625,67.3369140625,65.296875,0,41.3671875-25.97021484375,67.1513671875-68.63525390625,67.1513671875h-40.625v-132.4482421875h41.92333984375ZM246.589029511937042,470.843907062325343c0-20.4052734375-10.5732421875-37.841796875-31.720703125-41.73828125-4.45166015625-.7421875-9.46044921875-1.1123046875-15.025390625-1.1123046875h-13.91259765625v87.7412109375h12.6142578125c29.865234375,0,48.04443359375-12.056640625,48.04443359375-44.890625Z" style="fill: #fff;"/>
        <path d="M285.723306855687042,511.468907062325343c0-18.55078125,15.025390625-27.083984375,32.27734375-30.236328125,7.234375-1.298828125,24.30029296875-3.896484375,29.49462890625-4.638671875,0-7.9765625-7.419921875-14.46875-17.80810546875-14.46875-9.08984375,0-15.396484375,4.6376953125-17.80810546875,10.017578125l-22.07470703125-2.2265625c2.78271484375-12.61328125,17.06591796875-27.2685546875,39.8828125-27.2685546875,25.04248046875,0,38.76953125,15.0263671875,38.76953125,35.4306640625v60.1025390625h-20.96142578125v-10.9443359375h-1.29833984375c-5.9365234375,6.86328125-15.39697265625,13.169921875-27.8251953125,13.169921875-19.10693359375,0-32.6484375-11.685546875-32.6484375-28.9375ZM346.381998261937042,509.242344562325343c1.298828125-2.7822265625,1.298828125-5.37890625,1.298828125-8.162109375v-7.9765625c-5.1943359375.7421875-11.8720703125,2.041015625-20.0341796875,3.525390625-8.71875,1.6689453125-18.73583984375,4.451171875-18.73583984375,13.7265625,0,7.234375,6.67822265625,11.1298828125,15.39697265625,11.1298828125,9.27490234375,0,19.1064453125-5.9365234375,22.07421875-12.2431640625Z" style="fill: #fff;"/>
        <path d="M397.577799043187042,513.138828937325343v-48.787109375h-16.880859375v-18.921875h16.880859375v-24.30078125h21.33251953125v24.30078125h27.4541015625v18.921875h-27.4541015625v41.7373046875c0,8.533203125,3.7099609375,14.0986328125,12.61376953125,14.0986328125,5.1943359375,0,8.71875-.927734375,12.2431640625-2.041015625v18.55078125c-2.9677734375,1.2978515625-8.162109375,3.5234375-18.9208984375,3.5234375-15.58203125,0-27.2685546875-11.87109375-27.2685546875-27.08203125Z" style="fill: #fff;"/>
        <path d="M548.943521699437042,499.595860187325343h-69.93408203125c1.85498046875,11.873046875,12.9853515625,20.962890625,25.22802734375,20.962890625,9.08984375,0,16.509765625-4.453125,22.26025390625-11.31640625l18.36474609375,8.533203125c-6.86376953125,11.130859375-22.63134765625,22.630859375-41.36669921875,22.630859375-26.89794921875,0-46.74658203125-21.146484375-46.74658203125-48.9716796875,0-26.8974609375,19.6630859375-48.787109375,47.11767578125-48.787109375,28.56689453125,0,45.44775390625,23.373046875,45.44775390625,48.787109375,0,2.2255859375-.185546875,5.9365234375-.37109375,8.1611328125ZM503.681314668187042,462.310703937325343c-12.6142578125,0-22.26025390625,8.34765625-25.04296875,18.921875h48.416015625c-1.66943359375-10.759765625-10.20263671875-18.921875-23.373046875-18.921875Z" style="fill: #fff;"/>
        <path d="M557.655435761937042,512.025547687325343l21.3330078125-4.08203125c3.8955078125,8.71875,13.91259765625,13.5419921875,23.1875,13.5419921875,10.20263671875,0,16.50927734375-4.4521484375,16.50927734375-10.0166015625,0-7.234375-10.2021484375-9.83203125-17.43701171875-11.6875l-12.0576171875-3.15234375c-11.6865234375-3.154296875-25.22802734375-9.4609375-25.22802734375-26.15625,0-17.06640625,16.509765625-27.8251953125,35.6162109375-27.8251953125,20.7763671875,0,35.8017578125,13.5419921875,38.77001953125,25.5986328125l-19.8486328125,3.896484375c-2.78271484375-4.8232421875-8.34765625-11.31640625-19.29248046875-11.31640625-7.60546875,0-13.54150390625,3.7109375-13.54150390625,9.08984375,0,6.12109375,6.30712890625,7.791015625,14.46923828125,10.017578125l10.20263671875,2.7822265625c15.025390625,4.0810546875,29.68017578125,10.7587890625,29.68017578125,27.8251953125,0,18.736328125-19.6630859375,30.05078125-38.02783203125,29.865234375-22.63134765625-.185546875-39.140625-12.984375-44.3349609375-28.380859375Z" style="fill: #fff;"/>
      </g>
    </g>
  </g>
</svg>