<?xml version="1.0" encoding="UTF-8"?>
<svg id="Calque_2" data-name="Calque 2" xmlns="http://www.w3.org/2000/svg" viewBox="0 0 314.023993679907107 99.731666456689709">
  <g id="Calque_1-2" data-name="Calque 1">
    <g>
      <path d="M70.111608338193946,68.763386126538535c-11.931643624413482,0-21.434723258929807-9.608667797048838-21.329135096382743-22.912981702120305,0-13.515490230169235,9.608671824988051-23.018569864678284,21.329135096382743-23.018569864678284,11.720463271396511,0,21.434719230996052,9.503079634509049,21.434719230996052,23.018569864678284,0,13.515490230161959-9.397491471967442,22.912981702120305-21.434727286859015,22.912981702120305" style="fill: #1754ff;"/>
      <path d="M284.67001725256614,67.390715845878731c-11.086926240266621,0-19.850864569386431-9.080718928460556-19.850864569386431-21.5403154493888,0-12.670772846029649,8.869534547525291-21.64590361196133,19.850864569386431-21.64590361196133s19.850864569384612,8.975130765931681,19.850864569384612,21.64590361196133c0,12.670772846018735-8.763938329121629,21.5403154493888-19.850864569384612,21.5403154493888" style="fill: #3df069;"/>
      <path d="M70.111608338193946,67.390715845878731c-11.086926240264802,0-19.850876653175874-9.080718928460556-19.745288490628809-21.5403154493888,0-12.670772846029649,8.869538575453589-21.64590361196133,19.745288490628809-21.64590361196133,10.87574991517431,0,19.850872625245756,8.975130765931681,19.850872625245756,21.64590361196133,0,12.670772846018735-8.763954440841189,21.5403154493888-19.85088068110872,21.5403154493888M70.111608338193946,16.602036299260362c-16.260826763564182,0-28.5092389035417,12.776363022538135-28.5092389035417,29.353956287699475,0,16.577595279130037,12.142823977434091,29.142779962599889,28.5092389035417,29.142779962599889s28.614827066085127-12.459592492990851,28.614827066085127-29.142775934669771c0-16.683183441671645-12.354000302522763-29.353956287699475-28.614827066085127-29.353956287699475" style="fill: #3df069;"/>
      <polygon points="0 17.763524212939956 0 73.831694459378923 8.024823205271787 73.831694459378923 8.024823205271787 49.546046504499827 34.211085274476318 49.546046504499827 34.211085274476318 41.837993828768958 8.024823205271787 41.837993828768958 8.024823205271787 25.471576888689015 36.322880748811258 25.471576888689015 36.322880748811258 17.763524212939956 0 17.763524212939956"/>
      <path d="M226.912430363530802,42.471530859889754h-7.813636810357821v-12.459592492999946h7.496880378583228c5.173892467437327,0,8.236005572256545,2.428563989898976,8.236005572256545,6.124206069998763,0,3.695642080081598-2.745340561325065,6.335386423001182-7.919233028760573,6.335386423001182M247.291243801500059,35.608195568300289c0-11.192516416780563-9.92543228469367-17.844671355360333-20.8011821998698-17.844671355360333h-19.6397043560155v56.06816621850885h12.354000302524582v-20.167645168749004h5.807437554423814l15.204920970532839,20.167645168749004h14.14902323336355l-16.999960013094096-22.596213186589011c5.807437554423814-2.745332505459373,10.031028503098241-7.708052675730869,10.031028503098241-15.627285704489623"/>
      <path d="M115.726395417374988,43.42184043450834v-17.950261531859724h9.608667797059752c6.440974585551885,0,11.298110621213709,2.850924695951107,11.298110621213709,8.869540589421376,0,6.018615893488459-4.962716142345016,9.080720942438347-11.298102565353474,9.080720942438347h-9.608675852919987ZM144.869163296182705,34.341117478110391c0-11.403695762810457-9.397483416107207-16.577594272152055-19.745284462698692-16.577594272152055h-17.316724500731652v56.06816722549047h8.024821191305819v-22.7018013491288h7.180107835090894l17.633488988361933,22.7018013491288h10.031028503097332l-18.583806618846211-23.757699086288994c6.018613879512486-1.161485899710897,12.881949171107408-6.863335291591284,12.881949171107408-15.732875881019936"/>
      <path d="M284.775613470970711,62.955948572118359c-8.552778115751607,0-16.260818707703038-6.546566776018153-16.260818707703038-17.10554414770013,0-10.558977371678338,7.81363681035873-17.211132310258108,16.260818707703038-17.211132310258108,8.447181897342489,0,16.3664149261067,6.229796246498154,16.3664149261067,17.211132310258108,0,10.981334049782163-7.813636810356911,17.10554414770013-16.3664149261067,17.10554414770013M284.775613470970711,16.602036299260362c-16.3664149261067,0-29.248364097215017,12.776363022538135-29.248364097215017,29.248368125157867,0,16.472007116572058,13.621090476500285,29.248368125141496,29.248364097215017,29.142779962601708,15.521709625746553,0,29.248380208936396-12.354004330451062,29.248380208936396-29.14277593467159,0-16.788771604227804-12.881965282829697-29.353956287688561-29.248380208936396-29.248368125157867" style="fill: #1754ff;"/>
      <path d="M178.235538235390777,43.844197112630354h-7.496880378582318v-13.937850936210452h7.496880378582318c5.701841336019243,0,9.291903309424015,2.639744342908671,9.291903309424015,6.863335291578551,0,4.223590948691708-3.48446575500202,7.074515644631902-9.291903309424015,7.074515644631902M177.813185585207066,17.763524212939956h-19.42851191920272v56.06816621850885h12.354000302519125v-18.267030047438311h7.81363681035873c12.037227759030429,0,21.117954743363953-7.813644866211689,21.117954743363953-18.900569092520527,0-11.086924226301562-9.925432284690032-18.900569092509613-21.857079937039089-18.900569092509613"/>
      <rect x="24.43269248219076" width="108.403985279032895" height="99.731666456689709" style="fill: none;"/>
    </g>
  </g>
</svg>