<?xml version="1.0" encoding="UTF-8"?>
<svg id="Calque_2" data-name="Calque 2" xmlns="http://www.w3.org/2000/svg" viewBox="0 0 791.06929845610739 791.069298456105571">
  <g id="Calque_1-2" data-name="Calque 1">
    <g>
      <circle cx="395.534649228053013" cy="395.534649228054377" r="395.534649228052103" style="fill: #3df069;"/>
      <g>
        <path d="M353.448404511937042,326.357578937325343l22.43994140625-3.5703125c3.22998046875,7.140625,10.8798828125,14.6201171875,23.11962890625,14.6201171875,11.89990234375,0,20.22998046875-7.990234375,20.22998046875-18.7001953125,0-10.708984375-8.5-19.208984375-22.27001953125-19.208984375h-31.95947265625v-63.75h65.958984375v21.25h-45.04931640625v23.2900390625h13.93994140625c23.11962890625,0,40.62939453125,15.4697265625,40.62939453125,38.0791015625,0,21.25-18.86962890625,38.9296875-42.32958984375,38.9296875-23.28955078125,0-40.79931640625-15.2998046875-44.70947265625-30.939453125Z" style="fill: #fff;"/>
        <path d="M222.549478730687042,407.006016437325343c40.45947265625,0,61.708984375,28.390625,61.708984375,59.83984375,0,37.9091796875-23.7998046875,61.5390625-62.8994140625,61.5390625h-37.2294921875v-121.37890625h38.419921875ZM261.649088105687042,466.675938312325343c0-18.7001953125-9.68994140625-34.6796875-29.06982421875-38.25-4.080078125-.6796875-8.669921875-1.01953125-13.77001953125-1.01953125h-12.75v80.4091796875h11.56005859375c27.36962890625,0,44.02978515625-11.0498046875,44.02978515625-41.1396484375Z" style="fill: #fff;"/>
        <path d="M297.518717011937042,503.905430499825343c0-17,13.76953125-24.8193359375,29.57958984375-27.7099609375,6.6298828125-1.189453125,22.26953125-3.5693359375,27.02978515625-4.25,0-7.3095703125-6.80029296875-13.259765625-16.31982421875-13.259765625-8.330078125,0-14.10986328125,4.25-16.31982421875,9.1796875l-20.22998046875-2.0390625c2.5498046875-11.560546875,15.6396484375-24.990234375,36.5498046875-24.990234375,22.94970703125,0,35.529296875,13.76953125,35.529296875,32.4697265625v55.0791015625h-19.20947265625v-10.029296875h-1.18994140625c-5.4404296875,6.2900390625-14.10986328125,12.0693359375-25.5,12.0693359375-17.509765625,0-29.91943359375-10.7099609375-29.91943359375-26.51953125ZM353.108072480687042,501.865391437325343c1.18994140625-2.5498046875,1.18994140625-4.9296875,1.18994140625-7.4794921875v-7.310546875c-4.76025390625.6806640625-10.8798828125,1.8701171875-18.35986328125,3.23046875-7.98974609375,1.529296875-17.169921875,4.080078125-17.169921875,12.580078125,0,6.6298828125,6.1201171875,10.19921875,14.10986328125,10.19921875,8.5,0,17.509765625-5.439453125,20.22998046875-11.2197265625Z" style="fill: #fff;"/>
        <path d="M400.028970918187042,505.435703937325343v-44.7099609375h-15.4697265625v-17.33984375h15.4697265625v-22.26953125h19.5498046875v22.26953125h25.16015625v17.33984375h-25.16015625v38.25c0,7.8193359375,3.400390625,12.919921875,11.56005859375,12.919921875,4.759765625,0,7.98974609375-.8505859375,11.2197265625-1.8701171875v17c-2.7197265625,1.189453125-7.4794921875,3.2294921875-17.33984375,3.2294921875-14.27978515625,0-24.98974609375-10.8798828125-24.98974609375-24.8193359375Z" style="fill: #fff;"/>
        <path d="M538.748209199437042,493.025547687325343h-64.08935546875c1.7001953125,10.8798828125,11.89990234375,19.2099609375,23.11962890625,19.2099609375,8.330078125,0,15.1298828125-4.080078125,20.39990234375-10.3701171875l16.830078125,7.8203125c-6.2900390625,10.19921875-20.73974609375,20.7392578125-37.90966796875,20.7392578125-24.64990234375,0-42.83984375-19.3798828125-42.83984375-44.87890625,0-24.650390625,18.02001953125-44.7099609375,43.1796875-44.7099609375,26.1796875,0,41.6494140625,21.419921875,41.6494140625,44.7099609375,0,2.0400390625-.169921875,5.439453125-.33984375,7.4794921875ZM497.268717011937042,458.855625812325343c-11.56005859375,0-20.39990234375,7.650390625-22.94970703125,17.33984375h44.36962890625c-1.5302734375-9.859375-9.35009765625-17.33984375-21.419921875-17.33984375Z" style="fill: #fff;"/>
        <path d="M546.736490449437042,504.415196124825343l19.5498046875-3.7392578125c3.56982421875,7.9892578125,12.74951171875,12.4091796875,21.24951171875,12.4091796875,9.35009765625,0,15.1298828125-4.080078125,15.1298828125-9.1796875,0-6.6298828125-9.349609375-9.009765625-15.9794921875-10.7099609375l-11.05029296875-2.8896484375c-10.70947265625-2.890625-23.11962890625-8.669921875-23.11962890625-23.9697265625,0-15.6396484375,15.1298828125-25.5,32.6396484375-25.5,19.0400390625,0,32.8095703125,12.41015625,35.52978515625,23.4599609375l-18.18994140625,3.5693359375c-2.5498046875-4.419921875-7.64990234375-10.369140625-17.6796875-10.369140625-6.97021484375,0-12.41015625,3.3994140625-12.41015625,8.330078125,0,5.609375,5.7802734375,7.1396484375,13.26025390625,9.1796875l9.349609375,2.5498046875c13.77001953125,3.740234375,27.19970703125,9.859375,27.19970703125,25.5,0,17.169921875-18.01953125,27.5390625-34.849609375,27.369140625-20.73974609375-.169921875-35.86962890625-11.8994140625-40.62939453125-26.009765625Z" style="fill: #fff;"/>
      </g>
    </g>
  </g>
</svg>