<?xml version="1.0" encoding="UTF-8"?>
<svg id="Calque_2" data-name="Calque 2" xmlns="http://www.w3.org/2000/svg" viewBox="0 0 1627.962259035384704 134.035289201567139">
  <g id="Calque_1-2" data-name="Calque 1">
    <g>
      <g>
        <rect x="-41.395597269606696" y="43.549780310776441" width="129.361638471697006" height="46.570443932483613" transform="translate(90.120224243260054 43.549780310776441) rotate(90)" style="fill: #1754ff;"/>
        <rect x="1539.99621783329394" y="43.549780310775986" width="129.361638471697006" height="46.570443932484523" transform="translate(1671.512039346160691 -1537.842034792124196) rotate(90)" style="fill: #ea5b0c;"/>
        <rect x="917.104141327048637" y="43.549780310776441" width="129.361638471697006" height="46.570443932483613" transform="translate(1048.619962839915388 -914.949958285878893) rotate(90)" style="fill: #1754ff;"/>
        <circle cx="176.574027941202075" cy="67.017644600781296" r="67.017644600783342" style="fill: #3df069;"/>
      </g>
      <g>
        <rect x="1089.708813441861821" y="30.609202069805178" width="491.078454181412781" height="90.288305400634272" style="fill: none;"/>
        <path d="M1128.422790155394978,40.612393944436917v6.9306640625h-25.34228515625v14.5615234375h23.4521484375v6.861328125h-23.4521484375v14.630859375h25.7626953125v7.0009765625h-32.9736328125v-49.9853515625h32.55322265625Z"/>
        <path d="M1134.298766717894978,72.885831444436917c0-10.4306640625,7.0703125-18.341796875,16.1015625-18.341796875,4.76025390625,0,8.61083984375,2.66015625,10.22119140625,4.6904296875v-20.0224609375h6.650390625v51.3857421875h-6.650390625v-4.130859375h-.2802734375c-1.39990234375,1.9609375-4.900390625,4.8310546875-10.0810546875,4.8310546875-9.1708984375,0-15.96142578125-7.98046875-15.96142578125-18.412109375ZM1160.761169061644978,72.885831444436917c0-7.4208984375-4.2001953125-11.9013671875-9.94091796875-11.9013671875-5.25048828125,0-9.52099609375,4.55078125-9.52099609375,11.8310546875,0,7.4912109375,4.34033203125,12.111328125,9.52099609375,12.111328125,6.0908203125,0,9.94091796875-4.830078125,9.94091796875-12.041015625Z"/>
        <path d="M1176.228454217894978,45.583097069436917c0-2.66015625,2.169921875-4.830078125,4.97021484375-4.830078125,2.66064453125,0,4.83056640625,2.169921875,4.83056640625,4.830078125,0,2.7998046875-2.169921875,4.900390625-4.83056640625,4.900390625-2.80029296875,0-4.97021484375-2.1005859375-4.97021484375-4.900390625ZM1184.489196405394978,55.593839256936917v35.00390625h-6.65087890625v-35.00390625h6.65087890625Z"/>
        <path d="M1198.208434686644978,80.726651756936917v-19.1123046875h-6.16064453125v-6.0205078125h6.16064453125v-9.1708984375h6.720703125v9.1708984375h10.291015625v6.0205078125h-10.291015625v17.22265625c0,3.7802734375,1.39990234375,6.23046875,5.1806640625,6.23046875,2.240234375,0,4.13037109375-.630859375,5.04052734375-.98046875v5.951171875c-.84033203125.419921875-2.9404296875,1.259765625-6.65087890625,1.259765625-6.0908203125,0-10.291015625-4.2001953125-10.291015625-10.5712890625Z"/>
        <path d="M1221.307067499144978,45.583097069436917c0-2.66015625,2.169921875-4.830078125,4.97021484375-4.830078125,2.66015625,0,4.83056640625,2.169921875,4.83056640625,4.830078125,0,2.7998046875-2.17041015625,4.900390625-4.83056640625,4.900390625-2.80029296875,0-4.97021484375-2.1005859375-4.97021484375-4.900390625ZM1229.567809686644978,55.593839256936917v35.00390625h-6.65087890625v-35.00390625h6.65087890625Z"/>
        <path d="M1238.106383905394978,72.956143944436917c0-10.5712890625,7.98095703125-18.412109375,17.9921875-18.412109375,10.0107421875,0,17.99169921875,7.8408203125,17.99169921875,18.412109375,0,10.361328125-8.05078125,18.412109375-17.99169921875,18.412109375-10.01123046875,0-17.9921875-8.05078125-17.9921875-18.412109375ZM1267.159606561644978,72.885831444436917c0-7.0703125-4.55078125-11.970703125-11.06103515625-11.970703125-6.5810546875,0-11.0615234375,4.900390625-11.0615234375,11.970703125,0,7.0009765625,4.55078125,12.181640625,11.0615234375,12.181640625,6.4404296875,0,11.06103515625-5.1806640625,11.06103515625-12.181640625Z"/>
        <path d="M1288.016540155394978,55.593839256936917v3.5703125c1.75-1.9599609375,5.1103515625-4.5498046875,10.22119140625-4.5498046875,7.42041015625,0,13.37109375,5.6005859375,13.37109375,12.880859375v23.1025390625h-6.650390625v-20.7216796875c0-5.390625-3.150390625-8.7509765625-8.3310546875-8.7509765625-5.25048828125,0-8.61083984375,4.2001953125-8.61083984375,9.380859375v20.091796875h-6.65087890625v-35.00390625h6.65087890625Z"/>
        <path d="M1355.777282342894978,66.655362694436917c4.13037109375-3.990234375,6.86083984375-6.5810546875,6.86083984375-10.7109375,0-4.8310546875-3.29052734375-8.4013671875-8.8212890625-8.4013671875-5.740234375,0-8.75048828125,4.62109375-9.87060546875,8.12109375l-7.2109375-1.259765625c2.0302734375-6.861328125,7.91064453125-13.7919921875,17.2919921875-13.7919921875,8.9609375,0,15.8916015625,6.0908203125,15.8916015625,14.912109375,0,5.8798828125-3.220703125,9.87109375-6.9306640625,13.44140625l-15.19189453125,14.701171875h21.91259765625v6.9306640625h-32.1337890625v-6.1611328125l18.2021484375-17.78125Z"/>
        <path d="M1375.025817499144978,65.884854881936917c0-15.26171875,7.630859375-25.412109375,18.76220703125-25.412109375,11.06103515625,0,18.76171875,10.150390625,18.76171875,25.412109375,0,15.33203125-7.70068359375,25.552734375-18.76171875,25.552734375-11.13134765625,0-18.76220703125-10.220703125-18.76220703125-25.552734375ZM1404.918883905394978,65.955167381936917c0-11.4111328125-4.55029296875-18.83203125-10.9912109375-18.83203125-6.650390625,0-11.201171875,7.4208984375-11.201171875,18.83203125s4.55078125,18.83203125,11.201171875,18.83203125c6.44091796875,0,10.9912109375-7.4208984375,10.9912109375-18.83203125Z"/>
        <path d="M1435.088317499144978,66.655362694436917c4.13037109375-3.990234375,6.86083984375-6.5810546875,6.86083984375-10.7109375,0-4.8310546875-3.29052734375-8.4013671875-8.8212890625-8.4013671875-5.740234375,0-8.7509765625,4.62109375-9.87109375,8.12109375l-7.21044921875-1.259765625c2.0302734375-6.861328125,7.91064453125-13.7919921875,17.29150390625-13.7919921875,8.9609375,0,15.89208984375,6.0908203125,15.89208984375,14.912109375,0,5.8798828125-3.220703125,9.87109375-6.93115234375,13.44140625l-15.19140625,14.701171875h21.912109375v6.9306640625h-32.13330078125v-6.1611328125l18.2021484375-17.78125Z"/>
        <path d="M1453.006774530394978,78.837003319436917l7.560546875-1.2607421875c1.26025390625,3.4306640625,4.83056640625,7.0712890625,10.5712890625,7.0712890625,5.5302734375,0,9.80078125-3.7109375,9.80078125-9.03125,0-5.2509765625-4.2705078125-8.890625-10.5009765625-8.890625h-12.67138671875v-25.3427734375h26.60302734375v7.0703125h-19.6025390625v11.5517578125h6.30078125c9.80126953125,0,16.94189453125,6.3701171875,16.94189453125,15.611328125,0,8.7509765625-7.630859375,15.8212890625-17.15185546875,15.8212890625-9.451171875,0-16.3115234375-6.23046875-17.8515625-12.6005859375Z"/>
      </g>
    </g>
  </g>
</svg>